<mxfile host="app.diagrams.net" modified="2021-12-26T10:46:38.548Z" agent="5.0 (X11; Linux x86_64) AppleWebKit/537.36 (KHTML, like Gecko) Chrome/88.0.4324.146 Safari/537.36" etag="dMpUXK0zdc_Lykvyr1TY" version="16.0.3" type="github">
  <diagram id="17hi6B4V12NF1Bx0CsfH" name="Page-1">
    <mxGraphModel dx="1438" dy="751" grid="1" gridSize="10" guides="1" tooltips="1" connect="1" arrows="1" fold="1" page="1" pageScale="1" pageWidth="827" pageHeight="1169" math="0" shadow="0">
      <root>
        <mxCell id="0" />
        <mxCell id="1" parent="0" />
        <mxCell id="EHzQNXyAd45b1-Ulsyj4-1" value="" style="shape=image;verticalLabelPosition=bottom;labelBackgroundColor=#ffffff;verticalAlign=top;aspect=fixed;imageAspect=0;image=data:image/png,iVBORw0KGgoAAAANSUhEUgAAAZAAAAEuCAYAAACgf0TJAAAABHNCSVQICAgIfAhkiAAAIABJREFUeJzsnXeYU1X6xz83mT4MwzAMXaoiCFgoCgKi0kVAFBR1BVFRQV1sqGvBtRdW7F3Xsurae13Fn1hWFAVsq6ggAoL03qbk/v54E8jMpJ97kpvM+TxPHpjMzXvPJDfne8973mJ9dA4fYTAYDAZDnFj2TOxUD8JgMBgM6Ycn1QMwGAwGQ3piBMRgMBgMCZEV6kmfjW/9dtYnezAGg8FgcB8NC2josWovOEIKyPrtrC+7ijL9wzIYDAaD21l5DSubFtG05vPGhWUwGAyGhDACYjAYDIaEMAJiMBgMhoQwAmIwGAyGhDACYjAYDIaEMAJiMBgMhoQwAmIwGAyGhAiZB2IwGAxRyAKKgh4FQCFQD8gPeuQCOf5Hlv/hRW5ePYDlt2cHPaqAyqB/y4MeO/2PHcB2YJv/3+3AVmCL/zlT4y8JGAExGAwBcoHm/kcLoKn/0QRoBJQBpUAJIhoeqguBVdukdoKFx+d/VAGbgfVBjzX+x2pgFbAS+BNYAWxK+qgzBF0C4gXG+v/VgQ28itx1GAyJ0hAYivrEtwz4WH04SaE+sC/QAdjb/2gLtEaEwkvqxCARgscaPN8UQO3M6SCChWcL8hku8T9+A371PxYhKx9DCHQJSA7wGJCnyX4lctEbATEkigXcCfxF0U45MEh9OI6TjYjEQcABQBf/owXpIw46CRaeBv5H1xDHVSIi8iPwPfAt8A2w2P+7Oo1xYRnqKscBJyrasIGZpH714UHcS72BQ4FDgAOR1YZBjSxkxbYvcEzQ8xsRIfkSmON//Im40OoMRkAMdZFmwF2ou1i/Ba5TH05CNAQOAwYC/YFO6HMZG2rTAHnf+/t/9gELgU+BD4DZyH5LRm/mGwEx1DU8iOuqmaKdncCZJM+N6kHctiOBo5HVRn6Szm2IjgcR8U7AJKAC+Bp4C3gd+AHZ3M8ojIAY6honIu4rFWzgVsR9oZu2wBgkKKUbZpWRLmQDvfyPa5E9lJeAfyMrlYxwdRkBMdQl9kL2LFQTaL8GblIfTlgKkFXG6YiLJFfjuQz6sYD9/I/Lgc+RIKOXSPMQYpOJbqgreIG7gcaKdrYjrqudyiOqTQvgauAn4FlgMEY8Mg0v0Bd4FFmJ3Ay0SumIFDACYqgrjEf2D1SwgRuA+erDqUZbRNz+B/wdWSmZUNvMpwlwKRIefB+Si5NWGAEx1AXaAP9AbVK2kVDNfzgxID+BaLBvgXMxYbd1lSJgMnId3IBEeKUFRkAMmY4XeAAJe1VhOxJd40RWci5wATJhnIfUjzIY6iN7JPORwAnXr0KNgBgynUnIXoIKNjAdCcVU5WDgv8BtSH0pg6EmbZA9sKeQ2mOuxQiIIZPpgITbqt7JfYLkjqiQjYjQx0g4ruvvLg0pxQuchLhNe6R4LGExAmLIVLxIpEuRop2tSDitShJYU+AdZIPcRFUZ4mFv4ENgdKoHEgojIIZM5XygjwN2LkOqsiZKNyTufwBm1WFIjCLgOWBCqgdSEyMghkykI3A96lFX/wHuV7AxCLl7bKNgw2AAcYE+ApyQ6oEEYwTEkGlkA0+g3kpgE3AGiZecGA68BhQrjsNgCJAFPI4kIroCIyCGTONSoKeiDRtxgS1L8PWDgBcwxQ4NzpOHuLMiNctKGqYWliGTOAi4AnXX1RvAkwm+vjuZLx520L8+qreUrULKvOxiTx/zCqT5UmXQMcGvgz0NnjxIAIQXWU1mIQ3qAr3V8/3PB44N/hfqxj5Tc+AhYBQpLhdvBMSQKeQjUVeqrqu1wBQS+2K2QArkpZPbykYmXR8y0e9kT9/w1cj7sc7/2AhsQPqNb0Yi1Lb7Hzv8r61IYAwWIgqFSK2yUqSgZLb/9+X+c6zzj2sXMnfl+48rRJIx67Onu2Cp/9HIb7MJkvlfwh5hSmexGY6U53kilYMwAmLIFC5HuvCp4ENcV38k8No8JPHLzfWMypH+34Ge34v9//8dWIFMzuvRX2o8G9gH8eX3QFrttkEm++A5yaK2kJcjnf8WIuX0PwS+IPa+LPlI98bmSBHDtkA7/3g6IKKTi/vFxYNUhH4D+cxSghEQQybQC5iG+pf+RaRfQyJcxZ7udKkkMOHuQMTha6T16nfAL8ByUtPLOwvJwh8HDEMm7VjcTjV/l4uIdGtkr+kKRFBeQaKUviGyAO4Alvofc0KcqzHQHumPfhDiktwXWeG4TVSaAZcgoeYpwQiIId2ph/iDVRP0ViCrj0RcV/2Bi0ndBGMj7qT5wEdI5vw3wJoUjSeYPKSu0/nIhBzY63CCgJ1mSDHCM4H3kBDumuIQCzayCluFlJsJ0AARlH7AkciqqT7uEJTJSCXnRFbNyhgBMaQ70xEXiApVwFRgZQKvrY/kiuQojiFebGSP4h2kZeonyH6FW7CQFcLN7HEt6pxwLWQ+OwqpffZP4G/Ino0qG5H39xPgRmQf5VBkE3s4ImCpEpP6iDhPS8XJTRivIZ3pD/wV9S/vM8jmdyL8DemDnSx2AW8jd/V7AxMR942bxKMI6W/xJiIeTq46ohHYkD8TWUWo7ouFYgPS6/xMZO9kJPIZ7NBwrlg4jRQV5jQCYkhXGiBl2lVdV0sR91MirqtOSDn2ZLADeBhxAw0HXkbcVm6jNbKxfRZ7wm1TgYXsXXwADNR4nu2IUB6LrIRvJ/ltahsCpyT5nIAREEP6ciNSskSFSkQAVifwWgu4Dgkh1YkPeBWpqXUm8KPm86mwDzAL2Xh2w/6AhUyuLyG1yHSzGLgQEZIHcaZ3TKxMIgVbEkZADOnIUKTMiCqPImGQidAL8YHrZAMS638c0ifdzeyFuNaCo6vcgIW41P6NbIQng+XA2YhoJetz2xfZ5E8qRkAM6UYp4l/PjnZgFH5F9i8ScV1ZSPiorjs+G3GtHQE8jf68DFXygeeR8Fc3iUcAC9kjeIbkJnl+CvRGaqLpxoPcbCQVIyCGdONWJPlLhQok/DHRCJ3uwBDFMURiDZIr8Y3GczjJtcAhuFM8AlhAZyT5LplsBMaSeGmceDgaicpKGkZADOnESJzpiXA/srmaKOejb/VRhex1/E+TfafpiYRAu1k8AlhIc7DDk3zeCv95X9V8nlIkTyVpGAExpAuNgHuRInuJYiM+6SsVbLREIm508RqS15EOWEhv93TKJ8tGAjCSPeZKxMX0vcZzWMh+WdIwAmJIByzgDmTyVqESCS/domDjVPRV2i0HriHFFVbjYAjS9TEdVh8BLMTdNjwF594CnIzefJGBSIHJpGAExJAOHAecqGjDRkToYwUbWejbqLSB94FvNdnXwYWkl3gEsICLSM389y2yAtJFE6TUSlIwAmJwO02RWj+q1+oPwN8VbfRBch108ZBG206zL7KXkK4C0htJykwFM9EX3mshARhJwQiIwc14gHtQ7762C8kbibXkdzhUV0GR+BO1jf1kcwLptfdREy8pyt5GrsOr0eeqHEiShN0IiMHNnIj6hrUN/APpGaFCDnoTB99GXeCShQWMTvUgFLGQz1O1AVmivIKU2NdBZ8SVpR0jIAa30grZs1BtT7sAKTmiSm/09aEOtNFNF1oB+5Ge7qtgWiElYlJBBXCnJtv5SKCAdoyAGNyIBymUqFphdCcSf79LeUSSg6KLbcBnGu07TW/UKwG4AQu9CaHReAHpPaKDwzTZrYYREIMbOQOpd6WCjaw85qsPBwv18UTiW9xVjj0aSbm7TQIWqQ0E2IKUgNHBoZrsVsMIiMFttANuQf1LPQfZ+3CClujt+aESWpwKUhW9pIOuJLn8Rw2eRs9m+n5IJWKtGAExuAkv0vOigaKd7YjrqkJ5RMKR6L1L/W/0Q1yDF+hA+u9/BGiAhCSninlIYU+nqY+IiFaMgBjcxDmo1/KxkVIlTvbN6O+grZrsRDb604VGqAu829DRtTBWKpC2xDroqcnuboyAGNzCvsD1Dtj5GLjLATvB9HHYXjB/IP0j0oXGJLf/ux3h4RTa79Sj8LYmu9ojzNI5EciQOWQDjyCNf1TYgnRmq1Ie0R5K0Zt9/i3pU/sKJJQ5WTeeNlI36lXgP8AypDdKS2AEEhmXi7o7rYPi61X5AmmD63SvkkA/em3XlxEQgxs4H/W7fBtpEPWL+nCq0RN9/n6b9Kp9BSKo4QhMVFuQwpUNkPcu3vcvYOdz5IYgVGn7p5HWsfehVtDRQvrLeHH2xiMeNiJuTKddpW0QUdrosN3dGBeWIdV0Qco6qE7S7yO5I06j2w2gs7y3DuqFed4GFiIrg2ZAC8Q19BAiJvHyJjCY8H1RbCSTezDwImp32Y1IXUZ6AB15QIVIVKM2jIAYUkku0pe8UNHOBqQHtY47SJ0brIH+JOlEqFLhNjAbSTB8C4mC24kIytlIE7BYkzltpBXsOCTBMho7/PY/I3ERaYC6+1SVORpsWsgNmjaMgBhSyTTUI0Vs4BLgN/XhhGR/TXZBJtp02kCH0BvofyLFFcO5Sp4h9v7zO4CJxFcXbAeSfJponw0vkV1zyWABzoWdB6M1QMAIiCFV9AQuR73W1ZvAPx0ZUW3yUe+/HonVaPRPa6LmnBHI+F8d5XX3IPkukUTERvKAFiUwroVIIEaiqxDVsjmq/Ol/OI3OBFgjIIaUUIB82VU7+61Fckd8yiMKTQf01nxKZKJ0EzYigE/EcGwFcAORJ/gqpG1xOLKJ3NL4bhLbb4HU57ZUoMeduQ8a53kjIIZUcDXqriEf0lVumfpwwrIPejOuF2u0rYuaYh3Y84iFWUiUXDgR+YLQUXT1EWH5HUkQPYvQn8uvSORWIquQkgRe4zThAgZUaIH6HmNYjIAYkk1fYKoDdl5AQjl1srdm+7r2bXRS8w5/do2fC5DOjw8CHWv8rhx4N4xdG/gwxPPZwLPAZCS6ax9ETE4PY2dWmOejkbQ+4hFYqMFmEZL8qQUjIIZkUoRMLLmKdlYguSO6XFcB2mi2/7tm+zrYWePnmpPe7cB0JH9jFtC6xu8jRRv9EOK545FKyMErDi9StSDUqiGUjVhIdRgvOJ/DBPK+absRMgJiSCbXoR4VUgX8FT0bjjVpo9G2jV73my5quqs2B/2/ORJSG0gebIa4K4NZEsH2hho/e4AphHZXNQaOCvH8MhJzYbkhqXoJem6KtOWCGAExJIsjETeECjbitnpZfTgx0VKj7SpgpUb7uqgpIMGTdW+qh/kGWt8GlxXfSvgJvqZ7rBToHmEsoaoXJNoW2A0Csg55f5xGWyShERBDMihGssRVi/AtBS4mebWjWmi0vYv0aiIVYEuNn4Mj6UK9X8VU3wupJPznVzPCqiXhrxmL0AKfaNRcpOiuZLGZ6is6p6jpRnQMIyAG3VjAzagXJKwEzgPWKI8oNuoRvmyHE2xFz2Shm5pjDhaNcMJQ5v+3BBhE+Mi2E5FOeoH9iEgb23YYO80j2I+EG/qbVKHHNatNQNywbDNkNkORLGEVbOBxJGkwWTRC7w1WMvZwdLAR8dMH7tgPZI9LMdyeThvgVmR/pCzHi7VXAyguAMuCbTth9Ras9Ts41X/MMqQCb7R2xKFcgIkmzrlBQEDPddEUWZk5nuluBMSgk4ZIyKXqdfYbcCnJLXveCL2TSroKyDZkNehF3p8BSNQVwJfIJFXT7TQDyOrWEmtSHxjRGZrWA6//3bWBrRXw459YL3+H9a8vab1iE38lem2zr0I8d1gifxTuEZBoGf2JUIZEPhoBMaQNFtKTXHUDrxLZfF+vPKL4aIjeSWWVRts62U71if0QoD2SVb8SeA84mj3vnVWST/aM0TC+h6iOjX/5ErgdsKEwC7q3gIP3gqsGwb++wrr5fbJ+rxmXtYc1yColmFL0tx/WjY59sXzkenZ8g97sgRh0MQJxR6jyINJMKNk0jH6IEjruNJNBYAUSwIOEVYNIwmUEiX3X5vD5hTC6K0x5AZpNh+bT4cvl7BaQLRXQ4QYovQKGPQTLNsDZh8B3l8F1R0OD2hka2xG3aM338DTckRCowjoNNi1kb8hxjIAYdNAYafSjen39ghRcTAVOd4erSbKCAZxmF9Wr3lpI0mBn/89LEdeSPbgjzD4P9m0Ir38Lj3wuB59xKHRqzO51QlEOXDwQGhfBuz/CHZ/4n8+GK4+EH6+Avw2Csj0FObzAX5A8kIC7rAwpbZPu6CquqUVAjAvL4DQWUnlVNQS2ApmYUhWppLs/RDqG8IJsoNfMtchDSrafA9xjwf6T+2Lddgzk+VMK/9IDOjSGLs2hfo1ZxwLOPhgm9IA5v4sbK5imBXDjULhiMLz2HTzxJbmzFjK2ymYMIliPIPkiQbIUN25xe23SZLeZDqNGQAxOcwIwxgE7d1C7zlIy0S0gOlwVyaJmoycL6ArMzsvCunss1uk9q8/IWRYc2orw07QF+V44om2IY/w/F3rhpAPgxINg6UasJ7/CeuQzWi/dyHXVj0wItwhIzTwbp2iiw6hxYRmcpDlwF+pfxu/ZE9mTKlRLzUfCJr0FJFTJdKtdKZ5Pzsc6o2eYCyCWqyLaMRZYNrQuhquOhEXTsZ6agNW2VPmac4uAxNKFMRGMgBhcjQXcz56ksUQpRzZDaxbtSzY6N2MDfTTSlVrZ4cfsD19dDD20OEpC4N+Az7Lh5P3hm0tgiFqVNdUqCU6RaCmWaGipyGsExOAUpwIjHbBzCzDXATuqqFYMjkQV6ZmFDjJn7K6CawFXDYWXToWSXJJ2H29b8OFvMP0/UG7Lhvtz46FZ4o5HbT0z4kTXjZPqjV1IjIAYnKAVcJuiDRvJPL5efTiOoLMTYRX6fN26KSJof+jEHvC3gfDxYv219YP5YDGMfAie/BJ8/tVIcTac1DMhcxbuaCgFEuWmI2G2IRrmeyMgBlU8wEOofwF3Ia6rcuUROYMRkNCUEuTuOaYrzPkNjrwH7vxU/8l9wJPzYPRDkO2BZyZAXlAZxEaJVy/TWXk5HqrQo8XFaCgYaQTEoMqZwGAH7FwPLHDAjlPo/G5sJ/He3almL4LENccDB7SAkgK4/HX4QFOXd9uGTeUw+SWY+LSc790p/siuwDHA4sSDo/dFb+BErFShZwXSAA1Rt0ZADCrsjVTaVfF820gv7BmOjMg5dH430nX/A2p0t3t3ITTMg+dOg5wsOPYReMfhvno28Nky6H07PPQZ9GsPn50Ph9TINFq9A16Yl/BpylCvGO0ENnoEJB8NXReNgBgSJQspM6Kasb0NKUvhFtdVAJ05UuksINVinR77HBaug4Ht4L1zoCgXjn0Y7v5v9EqIsbBmO0x9DQbcDUs3wLXD4b2zoFUR1W5bfMAFr8DGxLegLeAI1fE6gC4B0bLPYwTEkCjn4MwX7hok78Nt6BSQdN3/ACnfvptdVTDuCVi/C3o1h4+nQqemMPVFOPFfsDLerAZbZs/1O+HGD6HzzXDfx3BUZ/jyIrhqAOQG6gD78QHXvQ///lr1T+MoUp8P4kOPgNiIG8tRTCa6IRG6IP3NVb9sHyOJh25E53dDR9vSZFCAZJxX+9wXLIdB98ELE6F9A6l/dckb8PBnMPtXmD4UTu0pFXfDYoPtgR/XwqNz4IkvYON2GNgRrhwiex0eu/rxAJsq4IJX4fE5yn+bBfRDSn6sULaWOLpaFlgYATG4gBwk6kq11Mcm4Czc57oKoLPFaboKSGfCVCmetwwOuQ3uPR6O3x/uOxaO3R8ueQ3OewFufh/GdYdhHaF1KRTkyIxW4YM/NsBHi+DVb2D+ctkwP6ozXDyghnAEZMuGKgte+R4uex0WOVdVLA84CWlDkCp0ubBAQ4FQIyCGeJkG9FK0YSNVdn9SH442dH43dJWr0M2RRHB7r90GJz4Ob/SAO4+FQe3hiwvg9R/gwf/C3R/BbbMgyyMPy5Icjl3+eLQOZXDRAJjQEzqUSskSoNp6Z0ulFFS8azZ8tdTxmdZCogrvIXWVEHQKSH2nDRoBMcTDQcjErxp19R6yinEzRkCqYyGNoiLis+GpufDlEvj3ROjWFMZ0geO6wurt8PlvMO8P2LQNPBY0qAf7lkH3ltC2tMabbrG78/mq7XD7bNm0X613/bY3cDzwpNazhEfXHggYATGkkDzgYdRrRG0ApuD+PAid3w1d9Y50sg/QgxhvHn5eA4ffCY+dDMd1kRc1KYBj9pPHbnEIEMqqLf7Nez+F69+F9cl7164Anic1qxCdbZsdrzBtorAMsXI50E3Rhg1cgvQ4dztmBVKdccRZH2zLLhj3OFzxLpQH7qv9/UEg6P81xcMGnwWv/Ag9b4MLX44uHiUlJViWIwFUFiKWZzlhLAF0urCMgBhSwsHI3ofqN/RN4DH14SQFnQKyI/ohriIPGJ/ICyt9cON/4NA74Ys/pAhiyOnRP23usuGJ+XDgDDjuEfg2SjxUkyZNuOmmm1i0aBE9evRIZIihsICrgKZOGYwDnQLieMFI48IyRKMA6fimmsW6BnFdJbPmngq6vhs26Scgo4B2KNxAfL0Mes+E4V1gcl84Ym/I9RdE8fngu5XwzHx48nNYHcP6rFWrVlxwwQVMmjSJggLxqo4ZM4a5cx0r5NwQmIlEZSUTnS6sxCuFhcEIiCEaVyOx/yr4gAuB5erDSRo6vxup7nUSD9nE0Wvc4/FQUlLCunW1+2XZwJvfyyPbAy3rS/mTFZthS4zB3O3atWPatGlMmDCBvLy8am6rsWPHcvnll1NV5UQOPBbitnsOeM0JgzGicxPd8R43xoVliEQ/4HwH7LyM9MxOJ4yACCOQfuMxrT6aNGnCggULGDFiRMQ9iQof/LYRFq6NTTw6duzIY489xg8//MBZZ51Ffn5+Lftt2rTh0EMPjWWYsWIB95FcV5ZOF5YREEPSKEJqXal0arOBlcBfSR/XVQAjIFKA72ricF316dOHFi1a8Morr/Cvf/2LVq1aRX9RGDweD927d+eZZ55hwYIFIVcdNRk/PqGtmkg0Q0LOdSaWBmMExJARXA90UrThQ1YwK9WHk3R0CsgujbadZBIhSpdEon///gB4vV5OOukkvvvuO2bMmEHr1q1jjpLKzc3l6KOP5u2332bOnDmMGzeO3NzcqK+3LIsxY8ZQVORosJEFDAcucNJoBHTugThert4IiCEUQ4DJDth5DnjBATupoK4LSCskEilm8fB4PBx++OG7J3rLsqhfvz4XXXQRP/74I6+//jqTJk2iQ4cOFBUV4fHI9JOVlUXDhg057LDDuPnmm/nhhx94/fXXGTx4MFlZWXGF5xYXF3PcccfF9YfG8qcB1wKHOW04BDpXII63aTab6IaalCB+X9WOfMuRuzadd1Q60fndcGv9rwBe4Hak+2DMtGzZkk6dai9aLcsiPz+f4cOHM3z4cGzbZv369WzYsIGqqipyc3MpKyujsLBw9/GJYlkWEydO5PHHH0/YRhjygCeAPugttqhbQMIFUieEERBDMBbS2Kmdop1K4FxgtfKIUoeu74aF+wXkdOAY4gzbHTZs2O5VRSiCVyaNGjWiUaNGKmMMS9++fenYsSM//eRoqTULaI2IyAj07WPpjMJyXECMC8sQzNHAqQ7YeZzkhj7qQGceSIUm207QHbmJiGtusCyLo48+2qlscCUsy+L000/XYhoYANyAvr4hOlfsOTg8biMghgBlSBVSlWgTG1iMZK2nOzqjbtwqIE2Ap0mg5EXDhg0ZMGCA8yNKAMuyGD9+PPn5WlqcW0hU4Rk6jKPXhZWNERCDJmYiG6cqVAFnAxvVh5NydAmIjTsLSeYhK8cOJDDJjBw5krw8x1tuJ0xZWRnHHHOMLvNZyB5Rfw22dQuIoxgBMQAch3rJBhvJG3lffTgpx4Pe1qZuExALccsMIYG/27IsTjjhBMcHpcqZZ56p03wB8BTQ1mG7Ol1YZgVicJwmiOtK9Vr4FbhMfTgZj42s1NzEOGAqCU4uzZs358gjj3TF/kcAy7Lo27cvnTt31nYKoAUiIk4WKdS5AsnCCIjBYe5BvVRDFRK5k66tWpONm1Yg+yFh2wm77MaNG0dWlvsCOr1eL2edpbUquwX0RlrgpsNc6viHlA5/tEEfJyHuKxVs4E7gE/Xh1AnctAIpQGqUKfXKPu2001y1+ghgWRYnn3wyxcWOtwKvdhokY/8UnSdxCC9mBWJwiObIxK96Qf0EXKk+nDqFWwTkdmB/FK6BXr16hUwedAslJSXx7s8k4j7yIN+lLgm8Npk4HhhiBKRuYgEPAKqZXBXARNKvv0UqsXFHYckxyJ2z0g3EGWfoimZ1jsmTJ0dMcAzCBn5BBD4eIbGQfuNPoqHnhoN4cHjONwJSN5mIJA2qYCMJZ1+oD6fOkWoBaQXcj6J4NGjQgBNOOMGV7qsAlmXRtWvX3UUeY2AmcCnxf0YWcCBwI3oj+FQxAmJQoh2y6adykdvAN8B1joyo7pFKAfEiHSbjqnMVipNOOml3/So34/F4mDw5ptqggVI+c4HLSUxEJgPD4nxdMnHUjWUEpG7hRXoblCja2Ym4P9Klr4XbSKWAnAMMJPQNxC5gcyxGLMvSnWfhGJZlMWLECNq1i6nEWxHSAO3/gFuIf08kC4lqaxzn65KFWYEYEmYKcKSiDRvpFfKV+nDqLKkSkH2RVWMo8bCBu4ANsRjq168fXbp0cbX7Kpjc3Nx4QnpLkVpuTwLPEr+ItEJ9la8LE4VlSIiOyMSvegHNAW5TH06dRWeiWCSygHsJXefKRqLp5hNjOZuzzz471o1pV2BZFqeeeioNGjSI9SVNEfG4CFhA/JvqJyGNqNyGERBD3GQjZUbqK9rZCpxJejREcjOpEJDTgSOoPYEEosL+BsR0i96iRQtGjRqVNquPAGVlZZx88smxHm4hIc7XAn8BNsV5Oi9wB+rfOVdjBKRucD7QT9GGDVwDfK8+HEOSaYW4rsJ9399Cbgr6EcMd6sSJE3VVutXOOeecE0/RRwuJWNwbWYnE63psh2zGZyxGQDKfrsB01JeuHyM+coMBeTBrAAAgAElEQVQ6yVyBWMCthM/52Ykkgv6NGK6R/Pz8tMj9CIVlWXTs2JGRI0fG8zIPct2/BrxB/K6svwLuzbRUxAhIZpOLuK5Uk5s2IWXa3d5Jz1CbIUi5mnAb5w8hRQH7hjmmGiNGjKBVq1Zp574KZurUqfHs31jICu5SpEVzTEEGQeQh0VwZiRGQzOZioJeiDRu4CtlkNaQX+cjkFS72f4P/91cSg3hYlsW5557r3OhSgGVZHHLIIfTrF5dH10IiGPsB2+I9JbKZ7o5uWw6vfo2AZC7dEf+r6q3iB0jZE0P6MQlxYYZbfdwOHIRUlI16nXTv3p3evXun9eoDJLHwvPPOi/dlBcBjQMsEThnot+KG+dYIiCEq+YjrqkDRzgYks9atLVh1kYooKadpRPj+LDawBinlfwUx3mScffbZeL06O/0mB8uyOOqoo9hnn33iehmJNxqzgJ5AXJsvmnA0B8kISGZyOdBN0YaNTECL1IeTdugWkGTcwl+I5DKEO9cdyKTWK5bxNGvWjLFjx6b96iNAXl5esjPpLUSso825FnqvDyMghoj0AaahfhG+AzyqPhxDCHTPwq0Qn32482xA3JIXxzqWiRMnUlQUKgcxPbEsi/Hjx1O/ftLSNCzkpm5osk4YBiMghrAUIlE1uYp21iCuK7f0rUgFOsuN6BaQiwifwBbIOu9C+JpY1cjLy0vb0N1IlJWVMW7cuGSe0kJWhtGO0YXjrQSMgGQW1yEtSlXwIeGKS9WHk9boEhDdLopWSPJbuHME2rB+GOs4jjrqKNq0aZMx7qsAlmUxadKkZLbjtYD+RHYv67w+fJhNdEMYjgDiDi0JwctIm9O6js7Vl87v3V+JnvdjIbWxYpqoYiyFnpZ069aNXr1UI93jwouUAwqHTgFx/Jo2ApIZFCM+bdVbqT8REcqEKCRV0lFAyoBTcXAC6tSpE/369cu41UcAy7I4++yzk3pKpBtkuJYKOt/oeDstRsUISGZwI9BB0UYVIh5/qg8nI0hHAZkINHTS4KmnnkpOTo6TJl2FZVmMHDmSJk2aJPO0DYHRYX6XaKhwLFQ6bdAISPozhBirqEbABp4DXlQfTsbg+JfNTyCfwGnycKDHeTCFhYWcdNJJGbv6CFCvXr14qvQ6Rbjde90uLLMCMeymBHFdqWZ3/QFMVR9ORqFLQMDhtqJ+hgDtnTQ4aNAgWrRo4aRJV2JZFhMmTEj2ZnofoHmI3+lcgVRgBMQQxD+ANoo2fEjOwFrl0WQW6SQgFtLvw1EmTJjgtEnX0rVrVw4++OBknjIfGBzieQ/65mXjwjLsZgSyYarKE0iZakN1dJVvsXBeQFoTY05HrDRp0oQBAwZkvPsqmFNPPTXZpwyVVOjFrEAMmikF7kf98/ud6IlNdRWdpeud9pWMQfZAHGPEiBHUq6faBSB9sCyL0aNHJ/NvtpDqvjWTfnWuQMoxAmJAGtyoOqerkHj0jerDyUjSZQXiIXy/j4Q59thjnTSXFpSWljJkyJBknrIxsG+N58wKxKCVEwgfwREPDwP/ccBOpqKz77uTK5DWSOl+xygtLaVv3751yn0V4Pjjj0/m6bxIQcuaz+lcgTiKEZD0ohlwN+qf269IhzVDeHQJiAVkO2hvKA67xPr371+n3FcBLMtiyJAhFBcXJ/O0Ncua6BSQXZgVSJ3FQvY9yhTtVCCuq83KI8psdK5AnBSQUJE8SgwcONBpk2lD/fr1k+3G6lLjZ90C4ihGQNKH8UjklQo2sn/yf+rDyXjSQUDygENx0Gfu8XjqrPsqwOjR4ZLEHccC2lF9TywLffPyTqcNGgFJD1oBM1H/vP4HTFcfTp1gh0bbquX2A3RAfUVajdLSUjp0UK2Kk75YlsXQoUMpKFBt5hkzxVSvi5WNvk10x69pIyDux4Nkm6vWOCoHzgC2K4+obuD43ZofC3CquNQhDtnZzQEHHJDRta9iobi4mMGDHfcMhiMfaBD0s1M3F6Fw/LtvBMT9TEK9i5kNzADmqA+nzqBLaG2cmyQOdMjObvbff3+nTaYdtm3HFETQb798J07npfrNoU4BMSuQOkZ74GbUlrQ2sAC4wZER1R3SwYW1Hw67Ozp16uSkubTD5/NxxRVX8NRTT0U8rmmJl67tHZvrC4P+r1NAtjlt0AiIe8kCHqT68jYRdiKrGJ0TYibi+JctCCeyxrOAtg7YqUanTp3q7Aa6z+fjmmuu4ZZbbol67J8bqrjvDcdycIN9ho5WFKiBcWHVIaYARyrasIGbgK/Vh1Pn0LlX5ITvIwdwtIlFXl4e7dq1c9Jk2mDbNjNnzuS6667DtpPeTy34hDoFZKvTBpNWv9gQF52Q/uaqt4JfInsfhvjRtQKxcGaSKMVhd0eLFi2S3Vgp5QTE4rHHHuPSSy9NhXhA9ZBxRzZWwmBcWHWAHCTqqr6ina1Ioyld0USZjuN3a0E4MUk4ni5dV/M/3nrrLaZMmYLP50vVELYE/V+ngGyJfkh8GAFxH1ORKp0q2MgK5hv14dRZHP+yBeFEkoGT2ewADBs2zGmTrsa2bebNm8cpp5zCrl0680YjUgGsC/rZCIghYQ5CEv1UbwM/Be5QH06dxu0C4qivpVmzZgwbNqzOrEBs22bFihWMHTuWjRtTWpB6O7Ah6OfCcAc6gBGQDCYfqZCrWsVuI1LrSmc/i7rAZhyepINwYpKocsAGINnX06dPp6ioyCmTrmfnzp2cfPLJ/Pbbb6kchg2spPrErktAbDTUvzMC4h4up3Zlznix/XZ+Uh9OnUfnCsSJScKxDVGPx4PH40nVBnJSsW0b27aZPn06s2fPTvVwQMoLBb/xOlcgm5w2aATEHfQCLkY9YfA9ZBVjUMftK5CNSD97Zaqqqjj77LM57bTT2Lx5c8YLyXvvvccdd7jGw/tVjZ+NgBjiohBJGFQN7dwATAYqlUdkAL0C4kSzjW04uEqybZsnnniC/v3789NPP2WsiGzYsIFzzjmHykpXfE1s4LMaz+lsxGIEJAO5GlAtQOQDpgFLlEdjCLAZh+7wQ6C62WAhCaKOh/IuWLCAPn368OKLL2aciNi2zbXXXsvixYtTPZQA64D5NZ7TtRG1HdMPJOPoh4TtqvIW8LgDdgx7qEJf0y3VHJ9pyHVTzeVZXAD7t4b9Wsr/E2XDhg2ceOKJTJs2jfLyzIjFsG2bhQsX8uCDD6Z6KAFsYDa18410CcgWHAy8CGAEJHXUQ/YrVGtnr0VcVynLgspgNkQ/JCFUBGQQUhiz2nd37BGw9AVY8E/47glY+zp89QCM6pvYSaqqqrjtttsYNGgQf/zxR0asRmbMmMHOna7Kq20LHFHjOdWbi3BsQoN72whI6rgR2FfRhg+5E/1DfTiGEKyLfkhCFJFYwEQL4ElqlCAaczg8dSnUzwarCjxVkOWD7u3g1avhhkngSTA84+OPP6Znz5589NFHaS0iq1ev5vnnn494zO3nQlny2qFbSNTl+8Aj7Nk81zUCx4IugjECkhoGIMUSVbCBV4Bn1IdjCMN6TXaziT+ZMBt4ghoFFPt1hSenQU64b7INlx8Pl56YwCj9rFy5kiFDhnDrrbdSWVmZdkJi2zavvfYaW7eGr05zWFc4dyScPCiJAxMR8QKnAW8inQl1baJruRkyApJ8ihHXlTfagVFYjboIGSKzVpNdL/H7uqcj1Zl3ryX23QtevAbyoxU1seGaCTCoe5xnDKKiooLLLruMCRMmsG3btrQTkVmzZkX8/fnHQ5YN5x8HhQ7Xw7WAvGwoyIX8HMiqPetaQH/gfvT1AzECkiHMQL2Pgw2cg4iIQR9rNNmNV0BOBS4jSDwaN4DXb4DGMWYNZFvw0MVQonh/+8wzzzB06FDWrFmTNiJSVVXFt99+G/b3JYUw8CDAgtalcNHxzp17yMHw4R2w7HlY9wqsfgl+eALungoNqn92FjAG9f4/4dByLRsBSS4jgNMdsPNv4CUH7Bgio0tAPMTm685HhOMBgvY96uXDKzdAhybEtZPSpiHcOCm+gYbis88+Y8CAAWmzub5169aIJUu6dYSioPv+S8dBV8W2KFleuHoCvHUdHN4JGhVCXhbUy5XP7dyj4IVraq1GPDjcYTIIIyBpTikyEai+58twJvTXEB1dKzyL6n2wa1KGRNZ9hQRb7J7e8rLhhb/DofsQ/1RjwRnD4NDOcb4uBN9//z0DBw5kxYoVrheR3377LWK13QP3ptr2coEXnr0KShOMh9p3L3j7Frj6ZPBahP6cLBiwvwRAVH9Wm4BouZaNgCSPu4DmijaqgLPR55s3VGeVRts1BSQfGAY8BSwE7kUai+2eUOrlw8vXwdCDEj9plg13nCt3yKosXLiQoUOHsm6drmA1dWzb5pdffol4TNfWNZ6wYL/m8MbN0CySzNegRSO4dTJ8dT8M6hpdCSwbph4LSSqArOVaNgKSHMYA4xyw80/gbQfsGGJjFfrKmTTy/1uM1EH7HkkIPQmJxql2N7p3c5g1E4apltu0oGd7mDBU0Y6f77//njFjxrgtv6IaP//8c9jfWUCb5tSe7S3o3R6+fhDOHS17TqFeW1YfRhwKT18JPz4O00ZDvZwQ9sKcvMc+0KVNjH+IGn/qMGpa2uqnKXA36mK9GLhEfTiGOFiJODccuF+vRRlwGBKRF9YhVZgHZ4+CK0+CBg5GB10/EV74P9jsQOf32bNnc+GFF3Lvvfe6sp/IkiVLwv7OBto1DvNLC5rVh7snw42nw8/L4dcVsKscigphn2bQpqnsa+AjIedTFjD6MPhOb1X5QNl4xzErEL1YwD2IiKhQibSnTWnnmzrIKjSUf/AzCllNhhSPRsVwwVj4/p/wj9OhQX6ooxKnaRFccpJz9h588EGeffZZV+6HLFq0KOzvivIhYhsU/3telCOJmSf0gfFHwOhDoEsr/2rDRumzGdVbuxtrO5rK8hgB0cvJwGgH7DwAfOCAHUN8VKJvI31/JPu42tTRuQ3cez788iTMnARtSjWd3YLzR0PrJtEPjQWfz8fUqVNZtUrntlH8VFVVsWLFirC/L60HhfEUE3J6m9sSF1Ybhz6HMKxFQyFFMAKik72Amai/xwuBK9SHY0iQ5ZrsVpuGOraS6Kp5D8CUYf4VR62jnKUwy5mw3gBr1qzhqquucs0qxLZtysvLWb48/EdYv37IxL6kkuOBIYdoPcVqpPe64xgB0YMHiaIpU7RTjriudFWFNURHl4DsZvwQmHsfjOntL0mSrG0EC044DPp2cc7kk08+ycKFC50zqMi6devYvj38Rk+LRsl7u8Niw3EJFr2MEW218oyA6GEiMFzRho1svrui72YdZplO4we2h4cuiCNyx2G8NtxxHmQ7FCZQXl7OPffc45pVSKT9D4DmJeiLs4sVC/p0hr1UbzfDs1SXYSMgztMWuBX19/YHpNmUIbX8rtP4cf0hN5W3wBZ0awtnjXTO5AsvvMCOHTucM6hApAgsgKaNSb2AAPlZcOJAbeaNgKQJWciGdxzpRyHZBZyJtC01pBatAtJc311nzFg2XHuqc3fAa9asYd68ec4YUyRaEmF7vZvXsWPDmcMhT7U7UGi0XcNGQJxlCtLwRwUb+AfwufpwDA6gLULfwu86SrUT3oKSPLjrr86Ys22bBQsWuMKN9euvv4b9nQW0bkbq338AC9o3hhOP1GJ9iRarGAFxko7A9ahfjguQjnMGd/AbmpwcNrBthy7rcWLByENq1WZKGDeE89q2HTkL3ZJkQDcxfbzkpjhIJcaF5XpygIdQ72e8HXFducOBbACJgNNWe2yzi5yUHhvumCJJjKpkZaW+yEV5eXlEAWlcDKW6iqcnSJtG8PeJjppcg8YoTiMgzjAVUA3Es5GVx1fqwzE4THg/iCK/u6kspgUtGsBtU9SX0a1atXJkSIli2zaLFy+OGMLbqhkUpF7nanHeSBh6sGPm/gC0FSozAqLO/ki3ONXv3OfAberDMWgg/G2sIitX4bpv4clHwDH9En99Tk4O/fv3T3ldrEhNpAAOaI873Ic1yPbAIxdLjooDRI4iUMRll27akQc8iHof4y1IwqCWcgMGZbQJyNI1uO5b6LXhnvOgeYJlVIYPH07btqpNN9WZO3duxN8f6FIBAWhRDA9cBF71a0PbtQuuu3TTjmlAL0UbNnANUs7b4E5+1GV4xVqwfdGPSyoWNG8A918Q/wTWqFEjZsyYkfLVh23bfPLJJxGP6d4Bd0RghcKCo3tIlQIFbOAnZwYUGiMgidMdaTeqysdIsymDe9EmIDt3wTaXrjtHHAznHhv78Q0bNuTll1+mXTvFfrAOsHTpUr7++uuwvy8ugA4tkzigRLDhuonKUVnarl0wApIo+UjUVYGinU2I60pLoTODYyxGU2RceSVscamAWMCNp0HvGFrger1e3nzzTfr27euK1ceMGTPw+cIv7Tq1gZLC5I0pUVo0kH4hCbINzYmwRkAS4wpAtTecDVyJVNs1uJtyNH1OPhsqdXUccYACLzx1eeiOfMFUVVVxzz33UF5enpyBhcC2baqqqrjrrrt44IEHIh7b/wD0dXpxENuGponXtViG5kKsRkDipxfSglQFG5gF3K8+HEOSiBzSkyDZXijQU77CGSxo1wgemha9j/ozzzzDqFGjWLFiRVKz0G3bxrZt5syZw5AhQzj//PMjrj4AjjgwSYNTwYZfV8Nj7yRs4XukV6I2jIDERwHwCJCraGcTkjCYBvdABj8LdBitX5gGrhQLRvaUDonReO+99+jRowdPP/00lZWV2oQkIBrl5eW8+eabDB48mMMOO4xZs2ZFfW39Aui5L+7dQPfz8U9w5IWwJrE+pDbwjbMjqo0RkPi4FojBIxwRG+ltrrcLssFptFQH7L5venwJLeCa8dCzY/RjV65cyfjx4zniiCOYNWsWVVVVjglJQDiWLVvGjTfeSOfOnRk1ahQffPABlZWVMdno1gEaqgbea8K2YdNOmPYoDLoIlq9RMjffoWGFxYV5mK7lcCTjXJV3kFWMIb34Bgl2yHbS6KAeiJPB5XfDAPleeHQa9JoC26Ns/Nu2zaeffsqQIUPo3r07kyZNYvTo0ZSWSnJJpI1227Z3/z5YeNatW8e7777Lc889x/vvv8+uXYlFHwzsjqz93fSe21K06slZcPVjysIBcq1qcbsGYwQkNoqQSV/1/VqHuK5cmr5kiMAmZCPdsf59Xo/fF++miSwSFnTdSwr+XfZwbC/x+XzMnTuXuXPnMnXqVA4//HAGDRrEQQcdRIsWLSgpKcHr9eLz+dixYwfbt29n27ZtbN26lbVr17J06VIWLVrE3LlzmT9/fsKiEfQncPgBSiacxQafB978Cqb/E75xrmjO78CfjlkLgxGQ2JgBtFe0YQPnobG9pEErNvAlDgpIwyLYp7lT1pLHBcfBcx/B/DiLZOzYsYN33nmHd96RXWGPx1NrJRJwUenaO2lYHw5oR+pF2wbbA5/8D654FD77zvG7yq+RRY1W0sH9mmoGI6sGFWzgJeDf6sMxpJD/OmmsUyvnWskmkxwL7jpPvcyGz+ejqqqq2sPn82mN4OreAerlaTMfHVsmg++Ww9FXQf/z4VPnxQOS1E/ICEhkGgAPo36/sgo4R304hhTzKQ5+11s2RXOQpSYs6NsJxvZP9UDi59CupCz20bZhzTaYfDd0OxPenqPvVMBn2qwHYQQkMrcDqnWpfcC5wGr14RhSzGJguVPGSopJ390wG66e4Eixv6TSs0NqzusDnpoNnSfCg29oTx5dg+YaWAHS7ONPKiOB8Yo2bOAZ4GX14RhcQAUO3tlt3ETqffEKdGwBo/qkehSxk5MFnduQ1PfctmHNVhh7PYy/EdZsSsppv0LKmGjHCEhoyoD7UH9/lgMXkL73mYbafOCUoQ+/hrXbSN+rw4a/DEr1IGKnpAhaJF4WJD78n+kXv0LPyfDyx+GO0EL0bEqHMAJSGwu4E2ihaKcK2fdwU885gzof4FB0y8r1cPgF8PIXsLUcufJs0kpQjnRTSGwUWjeBpHTatcG2xGU14EL4fVXwb7CR1YGuCCkfSRQQE8Zbm7HA8Q7YeRx40wE7BnexDPgOOMgJYz8sgeOmQ1kxHLyfZKZ3bgWd9oJmZVBSAF6L6pvtLnJ7pdMeSIuGJCVoocqCm56Dvz8GVdXPZwPvAe+jr/vo72gu4R6MEZDqNAfuAFSDKxcj5UrS6F7SECM+4G0cEpAAazbBW5/LI0BhrlRi7dga9m4JnVvDfq2hXTMRnKxgYUmRqMxJylatM2Rno/0bWeGDCx6E+16pdqrAquMy4AlkH03XJ/YfpHp0UjACsgcP0tipmaKdCmAKsF55RAa38ipwOZqn7W27YNFKeQSwgJxsaFoCXdvBAftAjw5w0N6wVyPwBJwkSRAU24ZX1TNj4p3SE/7Ltu5AvuWaViE7KmHSbfB0dQeSjSQPjwG+AG4G9tczAmzgNU22Q2IEZA8TgNGKNmwkb+Q99eEYXMw3SK/pfZN9YhvYVQG/r5bHm/5cgpwsaNccBnSHo3tBvy5QGLjj1iQmWyrg2eghBYERBAvFLmAl8CuwCHG7/IGU+tnKngZrWUB9oCXQGtgbaIvsT5YSvi5Z4C+u9td/v0RWCI4WM/OfZcNOOPkmeGdOzd/wMzAc+Tsno94KIhJrgMh9fB3GCIjQBrgV9aCCn5BmU4bMpgKpLHC55vOEujsPKQfllfDTUnnc+wo0awhj+sPEYXBgW7A0FGyc+SKs2xJxvDayEv8VKez3DbJ/9DOwgcRcLRbSEbQY2Av57rZEIicbAvXYoxFFwBD/a1i+Bj77Hg7vjHPvhQ1LN8BxV8NXC2v+hsXAUGTfbDpwFeru8Ui8hQhw0jACIh/ofUAjRTvlwNlAYtX7DenGM8g+l87vkIXcrb+MdJYLTJjNkTtzK+i4aqxcD3e/Ave/Li1pp4yCkYdCgSfU0fFhAx99Dzc9VevpJcA9/rEuQ+66VwLbcW73wfbb2+63/WWEY+sjq5sGIN0fr/sX9L3ZuQ/ti0Vw/N9hae004dXAMcj88hZSEkmnYzGQc5ZUjIDAJOQuQZW7gNrR3oZM5Uek3lA/zefJRSaiR5FrdRVyB94MKezYDTgE6IF/oiRooqqsgk++lUfzUjhxIPxlIBzQFqxESppb8MrnMPFmWfUEYSN32E/H/RfqYzPwHFLLzgL4v/nw0Dsw5Sg1wzbw+Cw4707YtrPWrzcgn9U44K/ISkg3i0jB/GPZM2vfGazdxtqyqyhTsJuPLF11lS2rRHyhqmUl9gbmsueLlwg20jqyN0nK/jS4hr8A/0ri+bb6z3cv8EPQ8xZQiFyDxyEbtg0JIw9ej2Rkjz0SRvWCLm3BChaDwI6F/18bsLwwbxHc+iy8ODtkeOrrwLG4r7pXe8R1trvvY0Eu/Ocf0KcDcQuobcOWcrj4QXjkLfm5BlVIJvg+QEn8Z0gIG3GRXa/rBCuvYWXTIprWfL4uC0gW8C4wQHEsu5BmU/pKoxncSiGyEtkryeetQq63p5CIsJp9H4qBU5AGaO2JMIl5LGhVBn0OhP1aQasm0LhIqgRvK4ff18DCZfDhV/DjUnED1cBG9jWOwL2Rh9cgq6Pd70NZA3jrFujZhuhTvP9vtj3wf9/BlNvlPQl/ZNKDqrchAR3aWkUYAanNVKRYosqHbQM3Alcq2DCkN39DroFUYCPfhS+Qm6H/IK13A6X6coETgGnsacUc8XqvGS4Vw/m/QFxsq6Icm0rygQ8RV9/uv7+4AO67CE7s73fnhcD2wuYd8MYc+Ofb8NGCkKuOVPNP4HSdJzACUp1OyIWv4pu0kZ7DfYDaXlBDXaEh4k6q9eVKEZuQvZnPkQ3meYhP/kgkjHQokOM/NtGbJxsJGrkbubNPh+t/L6TEx97U+Lu7dYDBPaB1M6ifB7sqYdUGKUEy7yf4+pdaLjs3UQ4ciObs83ACUhc30bOBh1Df2NqJbJSlw5fHoI/1SFmKW3FHkZFiRCQCgSGBRLYfgP8hq6WuyE3U3uwRk2Bq/h3BN5lbkaiwW/320oVlSCTUa8jfv/tvnPezPIL/aPctMsLyb5JYuqQmdVFALgT6KtqwgZuQuzuD4X7kZiJF3SYiYiF5Ei2RnIhgdiKb3jXzn2z/8+VIct8SJI/jE8RN5ta9jmAsJIQ2CxHJUqAxMBPJBm9CDaFMI9EIsBX4eyoHUNcEZH9kya3Kl8AtDtgxZAbbkH2Gl9GbKOY0kVzMXsQV3RxZrbcC+gPnIeGxgcc2ZCLbDuzwP3YiwSW7kKTLCsTtXInsz/j8j+Daw5b/4fGf24PMT1mI1yDH/8j1jzvf/yhAkgcLkbyPImQVVt//KPY/l0ZlH2PCRuagJakcRF0SkDykzEhhtAOjsA2520xawTJDWvAGksh1SqoH4jAeZBIuTvVADLuxga+Bf6R6IJmmypG4HDhY0YYNXIuELRoMwdjA+cDCaAcaDIpsAU7FBfuvdUVADkbKTqgQaFQ/U304hgxlPZJ9nA57BIb0pBI4g+qJpCmjLghIAfAI4jtVYQvywenqJGbIDBYgIpLUonaGOoEPqeb7QqoHEqAuCMjVSNieCjbiAjPuCUMsvI+UE9mU6oEYMoZKRDzuTPVAgsl0AekDXOCAnQ+QUE2DIVbeQ/IOQhe9MBhiZyswEamc4SoyWUAKkQqmqv1jNiFRV+7NRTW4lS+RAofvk5ZpBgYX8AtSr++paAemgkwWkBtR7xhnAxchPQUMhkT4AzgKuBRTrdkQO1VIjatDiNzzJKVkqoAcifQlV+Vt4DEH7BjqNpXADKA78A5mNWIIT6A9xHAkaGdDaocTmUwUkPpIrSvVJMl1SIdB47oyOMVC4GhgJBKtZTAEsxJpQNUT2UNz/Y1GJgrIrUA7RRuBpDDVhlUGQ018wJvIJHECUtHZULf5A4mw6oi0BE55gmCsZJqADEOWfapVUV/BXSVY+5EAABTVSURBVK05DZlHJfA80op2AFIltiKlIzIkExvpXDgBqYp8G1JbLK3IpFpYDZFQW9VidquAc0mD5aMhI/AhzY4+BFogJSpORu5G3VAe3uAcNrAauXF4nAyo5p1JAjITaK1ow4f4IFeqD8dgiJs/gBuQCMLuSH/z0cgdajpV+TXsISAabwIvIjcKGVOINVMEZAzwFwfsPIuLygQY6iwB98ZXSMvcTkiDqMHAoUh5crM6cSc2Usb+OyT/522k+2lGlkDKBAFpiqT3q96hLUWy1o3ryuA2fvQ/bkcSZHsA/fyPbkAJZoWSCgJzxVakuOF/gdnAHGTVkfGku4B4gLuQpjcqVAHnUEc+dENasw2ZpGb7f85BEmYPQsTkIGT/pAT5fpuVijo28j76kI3uxcA3SE+OeUjexpaUjS6F6BIQG9mMVq2AG44q/+NExE+symPAWw7YMRiSTTniLvkOeNL/XDawF9JitxMiKHsD7ZFgk0IyLwLTCQIrip1ICaPfkVIiC5EV4E9IB0BTUcCPLgHZCbTRZDvAXkjom+oXYRFSZsK4rgyZQgVyl7wYeDfoeQtZmTRGWtS2Rr5HLZEIsKZAI0Rg8hEhsthzB55uBI/bRm46A2131wN/AiuQfK/liBt7CXLzu5YM3bdwknR1YXmBu4EminYqENeVaQBkqAvYyLW+HrmbDoUX2aSvBzRABKWh/1HCnva29YOOK2SP6OSxp5e5N+jh8T+soH+h+gQf+NdmT9/0wCPQT73K//9yRAi2sacv+1Zk5bDZ/+8G/2M9Igjrg47bFeN7ZohAugrIBGCEog0bKXnynvpwDIaMoQrY6H8kUonBIrKABMSjpoDAHvEICEjg3yqqi0clpsSQK0hHAWmLlCtRdV39DFyhPhyDwRCEjazsTVZ9HSDdNtKygPuAUkU75cBkTMc4g8FgSJh0E5BJwBBFGzZSsOz/1IdjMBgMdZd0EpB9kBIPqtEg/0P6pBsMBoNBgXQRkGzgQSQqRIVy4EwkCsNgMBgMCqSLgEwFDle0YSMFF/+rPBqDwWAwpIWAdAb+jrrragFwjfJoDAaDwQC4X0BygEeRJCUVdgKnkUadvgwGg8HtuF1ALgEOUbRhIz0WTA9qg8FgcJCQiYQWWIU5ynf9SpRX0bmiSj3RL8fLN9le7kV9FWMwGAx1EivMFoJlz3RfEcGdFdD7TliwQs1OfjZ8eT50aebMuAwGg8GwB1e6sK5/X108AK4ZasTDYDAYdOGqWli2DV8uhVs+VLfVpy1ccJi6HYPBYDCExlUrkB0VcPpzUKlYZ7NeDjxyAmSZJp8Gg8GgDVcJyPR34Yc/1e3ccBTsW6Zux2AwGAzhcY2AfLwI7vpY3c6R+8DkPmClY/80g8FgSCNcISCbdsCZz0OFouuqOA8eHAvZxnVlMBgM2kn5Jrptw2VvwcI16rZuORraq3YKMRgMhmThzYW8hpBTXx7ZhZBVAJ4s8PjvhH1VYFdC5S6o2AoV26B8M5Rvgl1bSGVzRj0Ccsxb0KR75GNeGgxrv+W9n+DhOeqnHNYRTj/lOKyB90Y+8KdnYfb56idMBZ4cOP23PReW09g2+Mqhcifs3ADbV8Pm32Dd/2DVXFj7HfgyrNFcSQc4PorvdO0P8NKA5IxHB0OfgtYDE3vtiv/CG2NwbJIa/gK07Bf5mNeOgT8dmBTcRk4xND8UmvWGsgOgZF8oaAxZ+eDNAStGh5Bty/ewyi8om3+HDT/D6vnw5xewep78LgnoEZC8EihoEv73tg2eLNZvh8kvQZXitdmoEO4bA1nZeZHPC6Ly6YplyQXnScHC0fbB1hXwy0vwzX2w8efkj0EHVlb0ayZvZXLGoovcBtH/xnC0GwktD4PlHzkzlmhzA4A325lzuYXSLtDjEmg/UuYf1Q1ayxLB8eZAThEUNoNmvWC/8fI93b4Gfn0JFtwL6//nzN8QhpTtgdjAxa/DkvXqtmaOgjYN1e0YImB5oKgldJsKpyyAPjfJisiQ2Xi80Gt67HfHhj1YWdD7Wjj5K9jvFMgt1h/dY3mgsAkcMEXOe/AV6JzmU3JV2MDr38MTc9VtHbc/nNRN3Y4hDrLyoeelMPxZ8GTY3aKhNi37w15p7MJLBZ5sGPY0HHKl7HOkgqx8OPQ6OPgybadIiYBYlsWM/wOfYhWuJkVw12jwmpuj5GNZ0P4Y6Knv4jS4BMsDva6WO2pDbPS/DTqMTX0+gWXJZ1faRYv51KxAbJsdinuxFiIezYsdGZIhESxLBKSweapHYtBN80Oh3fBUjyI9aDcS9p+SevEI4M2Bg/+mxXTa3ruP6wZjDkj1KAxkF0DXM1M9CoNuLEv2QozLMjLePOh3a+KRkrYd+ueaz8dLu5GQW6JmIwRpuSZtUQy3jwKPSwTeVVTukggMX2V8r7M8En+e2wAadoCCprFHe3UYC3P+HvdQDS7B9kH5VsiNEqHYuBvsPRp+fj4540pH9hkjoeGxEAjH3bIU1v0Am5fAtlWS31G5w/8dtsHyijBlF0oUW2EzaLA3NOoqohDLSienHrToA4vfVPnrapF2AuKx4J5jZf/DEIKKLfDBmZJspEJJRzjor7K6iHY31bCThGZuX6V2TkNqqNwJ/70Kjrgz+rGHXAm/vir5QobadDk9tgl9yzKYNxN+eQW2/J7Yuby50HowHHEX1G8T/fhmhzouIGnnwhrfA0bp2Q8yBLPhJ/hwCnx9W/RjLQvKDtQ/JoMeLA8sehW2xZDv0qgr7Hu8/jGlI/mNoGnP6Mf9ORee7g7z7khcPECSBRe/AW+OjS1xsHS/xM8VhrQSkDYlMGOke/am6gQL7pHldDRK9tE/FoMeLI+4S757OLbjD74idaGpbqa0i7iBI+GrgA/Ogh0O1G4KsOorWDor+nFFrQnTmTZh0kZAvB64d4xknRuSyNblsOGX6McVNNU/FoMeLA9k5cF3D8Xm+mzYETr+Rf+40o3SztHvbld8DmvmO3/uJe9GPya/1PGE0JTlgcTLGYdIvStDsrHFnRWN3Ab6h2LQg2XJimLrH7Dwudhec8jlsrFr2EODvaMfs+QdPede8030Y3KKMkNA7DhD0jqUwU1HG9dVytgWQ5cv49JIYzx7Pr/5d8UWwVfcDjpP1DusdKNor8i/t21Y9bWec29dVj3U17Zr/+zJwWkXluujsLI98MBYKMlP9UjqMOVboh9jaiWlL5a1J79j7bfw+/vQdlj01x38N/jfE1C5Xe/40oXCZpF/b/ukurUOtiyHFw6PcpDteDVt1wvIuf3g8PapHkUdJ5aLLt68E4O7sAKh2jbMvwPaDI2+5C/aS8K859+hfXhpQX6UPtp2lbRI0IGvAv5woKVrnDh+26iYL1mN/ZrAtTFcxwbNWDFk1VYq5p0YUktwrs+yD2HNgthe1/NSSXCr61ie6ImYdpUkbGYQjgtIZRWsc2AuyfbAwydAPeNaTz05MWRt7tqkfxwGfQS7IH2VMD+GpEKAwqZwwDl6xpROZBWAJ8pkVVVBKrsH6sBRAbFtuH02/LJW3dZFR0Dv1up2DA4QzbcL+pbmhuRQc5X58wuwaUlsr+1xsXTbq8tk5YE3yo5ApnXzxGEB+eFPuPpd9bpfXZvB1YON68o1lHaKfszmJdqHYdBITQGp3A4L7o7ttXmNpOxNXcaTE0O5+8xafYCDAlJRBaf+G3bGsJcaKQ8k2wOPnwh5puinOyhqBQ2iFIezbSkGZ0hfQkXR/fBobCHclgXdzoe8UufHlS54c6MXH7WNgITEtuGmWfD18liPD79EuWIQdGvpxKgMjtB1kizPI7H1D6koasgsdm2CebfH5lLIawg9pukfk1vxZEUPNlF1zbgQ5TBe24b5f8AN76sPpntL+JvpnOkOLK9UFu1+ceTjbBsWvZacMRmSz7cPwIHnRk+SA+nDPf+O2FYtmYYnO7rPPd4VyLBnoIGDOQx2FTzf39G9GGUB2VkJpz0L5VVqdvKy4J/jIMf1mSkux/JKaeeKOJO7svIgu564rP6/vXMPjqo6A/jv7mZDXjxCaAgiJeEhVpGCgLbUR6tWEPocrDKdjk6tDtDa0jI+htoO0tpW26kdHUccHa21pS2tDxqs0EIREAwgKpgMhQIJlACxhIQkJOyG3T3940sGAd1zdvfefeX8Zu5MMvn2nJNk93znfM/yidKu1qS2T7Tb3FZuyT6622H7L+Gzj+vfC/n9Ycr9sOEHqVlbJuHPd3/MIeOl+rFbKOV6wm9S27VS8OBq2Hkk+YUsni7Oc0uSFJTCbXWpmUtFYOO90LonNfNZ0kPdczBpgVmtp8vuhLcfldIafQmTXCkTGS9xHNfXkLA6Ugo2N0jYbrJcPQoWXmujrrIGpaR51Orb7e2jLxDugm2/MLPhB0r6pi/E5GTvy4ByP6ZdRk2HS/SFJ0Nw11/gdJKBBf37wdO3WNNVxtPbfrO5DjYtghfGw+5l6V6VJVXsXgbNtWayl37TzGeSS5gokHTfQMAg1Dg+ElIgSsGPVsFuF3LHfjYTxmlKyFgygD1/gpduhD9Oge2PwCkXskUt2UMkBFt/auYIzi+Byxd+xA9zLxIJMDOfZIIC0bWnjpOE1NG6vfDk5sQn7c0DueEimDfNmq6ygou/DmO/Bm31EnW143EJ37X0HfatkO53FVfoZS+9A7b/CjrPcZBGk4y2yVRMfq94FUjrf8wjtxyfNPryaRLoXDZhxT1aaxfMexHCSZiulFKUFsHSGRDIAKVsMcQfgMHjYPB94ixdOxf2vpjuVVlShQrDliXw5ZV6k02/ATDpu2LuPGuMXFUg3XqZeE//r95sLptXCHc0QPFQzRrSaMJSChb9HfYlab1wgCUzYMyQ5MaxpJGCwXDTMqicme6VWFJJw2o4vMlMdvxd55c4z1UFEuk2CDLweWfGcnxmCsplH0hco63aDc9udWfiaZWA6/X3TGxhOWqD7eX0Sdj8Y7FZx0OgWD7sQyfDsE+Zlej258MNT8HvPmHWS9uSA0Sh5kG4eY1+Mywsg8vmwraHPvDyHFUgpzulirE/hgnJceRz1d3uwQIMlVO68kCaO+E7L5mZrqJRvZDjhSY2uZ6ZXDWzmXAQ6p5JbkPv/3G48gEYf6f+Ddd/hPhGdj2f+HyW7KLxdTi4Fiqn62U/OV/8Zb2bZg7WgwLk8xYJaRSID/qVeqNAfH6zZEaXG78ZqaOognur4UCL2aChkMHpN1BkNlg8BEr0MpEcVyBu0PFfWDsPahabxf6P+ar3a7JkFjWLzW4TxcPgktvOfJ+DJc0BafscPhVbxvFDyXBv5g8Uix9Eh8sHaCMFUl0HL2w3H7SrS1NGw3GgsNx8QFN0DiSA0An3581JFLz1MDRt0YsOner9ciyZRdNWqK/WyzmOZLH7ewpyRoLeritdRLvPjzg7F8eBsku8mX9Apd5aoJQoOhfRKpCmdrj7ZbmFmHLs2DG90OBx5gOaUmow5imDtVmEaBh2PKmXK65wPbrDkgXULDYziQwcDWN7IorCOapAQELcdQy/xpu5yy/Xy3S3x+8b1RBTgUQVLHgFDsfZrbSpyaAa54XXxjeoDl8Ahn1aL9fRx2r0JMvhN3paccbAcWxHur5Icy3sWa6XcxyYvFAOGTozTzZj0ke+aqZZi+h4GfUFvUzX/1yPgoupQP78Lvx1Z/yD7tljUFxv+DVQNj7+wT+Kqll6+6KKQOte9+bsC5w6BqFWvZzfNq/vk9Qs1h8wAD42EUZOz20F0rRd7zMsLIOpi2LLxEvFlTDiOr1c237Xgxg+VIEoBY0n4PuvJBb0WltbG7NpFCARAzN+DwOqEpjhHMonwecMyk2H2syumZYzhIO5a7e2JE/bftj1W72c40hvmVwOYmnaImH0OqbcB1c9DP0GJTmhAxd8BmYtNzMhN7+X5Hzn86GzRpX4PY4lGAm6a9cuWlpaKCvTtLgsnyilxw+sgkOvy5W4/SAEj/fYVtUZje44PckyAclXGFgFQybAyM/DiOtjh8/10rTNboZxE83d0EuLO2x9CC7+hj6y8sKrJUM9Vwm2wJE39eHNPj9MvR8mzIUD/xAz8fE62ftONZ+99zkAPXtfXpFEtQ0aDeWTZe+ruMIst0Mp8wTQODhPgSglEVd/S6KlRDAYZM2aNcyZM0cvHCiCsbPl6SUakRLSkZB87SAZlHkFEqqWSDKMUrD35fhfZ7FYYtNxCGqflr7osXD8Zs7ebKbuWRh5o1mBv36DYNyt8vQSjUC4U25q0YiM48uTfc9fkHjhwO4OUVQuc95OfLAV7jGIztOxYvnzifcA9vnF0VQ4REJzi4aK7TBQnHgmZfA47LMKxGLxhLcesSHyAPUroXV34q/3+SF/wAf2vnIpG5RXmFzV2fpqT/4/Z+3GUQUPvCb7fmlh4k9ZEdw+dC0cSaJkr5soBe/8RpSIxWJxn64mePexdK8i/USCsPGezEqYjISkLbEHnGXCcoBnbnFn4MJABP41H259wwVnURIoBUffhLd/nb41WCx9gXcegwnz5dTcl2l4DWqWwLSfuF57Km6UktuhaTOwODnrt3McKMp353EcxDG0cjZ0GuSFeIFScHgjVH/F9QQai8VyDqFWe1DrZdvPYd3dHhVONCQagR1PSJCDR3ivHg+tg2WTYedSCaNNBUpB2wFY/z3pome751ksqWHnUuhoTPcqMgAF7y2FP0yCuudSq0iiYWjcCNVfgvULPDWnpab+ROcRWPdtSTqqnAGVN0HFVKn66gu405IwHJSY9MObYP8KaNyQ20lLFksmcrpDaqhd90S6V5IZtNXDmm/B5h9KFnrVTKkdVzLcvfI/0TB0HhUzVeN6MaEd/zfgffi9ox5NU4MMXx4UlEk+x8DRUk+pqEL8Jfn9pbKuL08exyd/pGhYlEJ3m9xmOo/CyUY4sV+UR7Alt3MWHB+MmR1b4UZCUP+quyULqmbp+4Psr87OHJv8AXKoiUXoBBz8Z2rW4wXDr4LiC2LLNG6Arvfdmc9fAKO+mPjB8NC63LYa+PIlsrT0IhhYKQfpgjKJtsovkZ/3HqyjYfksR0KSpNh9Ut6PXe/L034A2hpk70uDmT59CsRisVgsWU2aQwQsFovFkq1YBWKxWCyWhLAKxGKxWCwJ8X8pcRTrAmL/AQAAAABJRU5ErkJggg==;" vertex="1" parent="1">
          <mxGeometry x="380" y="219.65" width="160" height="120.8" as="geometry" />
        </mxCell>
        <mxCell id="EHzQNXyAd45b1-Ulsyj4-4" value="" style="shape=image;verticalLabelPosition=bottom;labelBackgroundColor=#ffffff;verticalAlign=top;imageAspect=0;image=data:image/jpeg,/9j/4AAQSkZJRgABAQAAAQABAAD/2wBDAAUDBAQEAwUEBAQFBQUGBwwIBwcHBw8LCwkMEQ8SEhEPERETFhwXExQaFRERGCEYGh0dHx8fExciJCIeJBweHx7/wgALCAKjBLABASIA/8QAHAABAAIDAQEBAAAAAAAAAAAAAAYHAQQFAwII/9oACAEBAAAAAaYAAAAAAAAAAAAAAAAAAAAAAAAAAAAAAAAAAAAAAAAAAAAAAAAAAAAAAAAAAAAAAAAAAAAAAAAAAAAAAAAAAAAAAAAAAAAAAAAAAAAAAAAAAAAAAAAAAAAAAAAAAAAAAAAAAAAAAAAAAAAAAAAAAAAAAAAAAAAAAAAAAAAAAAAAAAAAAAAAAAAAAAAAAAAAAAAAAAAAAAAAAAAAAAAAAAAAAAAAAAAAAAAAAAAAAAAAAAAAAAAAAAAAAAAAAAAAAAAAAAAAAAAAAAAAAAAAAAAAAAAAAAAAAAAAAAAAAAAAAAAAAAAAAAAAAAAAAAAAAAAAAAAAAAAAAAAAAAAAAAAAAAAAAAAAAAAAAAAAAAAAAAAAAAAAAAAAAAAAAAAAAAAAAAAAAAAAAAAAAAAAAAAAAAAAAAAAAAAAAAAAAAAAAAAAAAAAAAAAAAAAAAAAAAAAAAAAAAAAAAAAAAAAAAAAAAAAAAAAAAAAAAAAAAAAAAAAAAAAAAAAAAAAAAAAAAAAAAAAAAAAAAAAAAAAAAAAAAAAAAAAAAAAAAAAAAAAAAAAAAAAAAAAAAAAAAAAAAAAAAAAAAAAAAAAAAAAAAAAAAAAAAAAAAAAAAAAAAAAAAAAAAAAAAAAAAAAAAAAAAAAAAAAAAAAAAAAAAAAAAAAAAAAAAAAAAAAAAAAAAAAAAAAAAAAAAAAAAAAAAAAAAAAAAAAAAAAAAAAAAAAAAAAAAAAAAAAAAAAAAAAAAAAAAAAAAAAAAAAAAAAAAAAAAAAAAAAAAAAAAAAAAAAAAAAAAAAAAAAAAAAAAAAAAAAAAAAAAAAAAAAAAAAAAAAAAAAAAAAAAAAAAAAAAAAAAAAAAAAAAAAAAAAAAAAAAAAAAAAAAAAAAAAAAAAAAAAAAAAAAAAAAAAAAAAD6zjD08gDOAffzj6fIAAAAAAAAAAAAAAAAAAABZ/Zi0np2awd9fP18vr5sqtX18vq7Kl5UqmFUfIYAAAAAAAAAAAAAAAAAAAJZ3K3tXmySHz/wCo3ytvGt25NWG/9diMySTUtydu+ofpzuobKpL4AAAAAAAAAAAAAAAAAAAJZ3K3t+AWJWM+q+/q535HSUtmFZXHB+71KYtCv+Tt2pUd2xXfhPAAAAAAAAAAAAAAAAAAAAFk9Th7sJtmESen7Q8ub0PXR2drjdbx4kr6UEh2xcXK4EPvegsAAAAAAAAAAAAAAAAAAADIDGQAxkwykdh15GwAAAAAAAAAAAAAAAAAAAAAAADP18AAAAAAAAAAAAAAAAAA7ch8+NwfSZIb2O/5x/5k3n6RaU+evE5ZttSH7sv8+fGMMzjndLnbuvveXrGpFqevt8Rbckfn6wzVAAAAAAAAAAAAAAAH3edHXjTNvVB83DSl20rfv5+vemu15WDUkjk31wM9yp83fSlsQqLlk8mURTvV1dVL9nv9CJ9T2hd10jdVRyDkR4AAAAAAAAAAAAAAAP0JXstpy6aLxeNN3nX0wpH9Acmo/C34zNqh05VmKaS8IRP6V0TetbR3uNWt6cOHcKxYn1PeAWvDbc51LY8QAAAAAAAAAAAAAABm8aOvym7foletF3XSV403dFQe23P6ksvjQKbZg7N10pON2usM3zAJxDa/vCmehJehE+p7wG8qauWqNvwj4AAAAAAAAAAAAAAA7s8r2axnSlWIz9zfjeXAn3E6sJnMb0pZWNjZrjG7ZPF2YDNoHhOIdK4192NxehGZRytn38eBrTvi9ivOcAAAAAAAAAAAAAAAAAAAAAAAAAAAAAAAAAAAAAAAAAAAAAAAAAAAAAAAAAAAAAAAAAAAAAAAAAAAAAAAAAAAAAAAAAAAAAAAAAAAAAAAAAAAAAAAAAAAAAAAAAAAAAAAAAAAAAAAAAAAAAAAAAAAAAAAAAAAAAAAAAAAAAAAAAAAAAAAAAAAAAAAAAAAAAAAAAAAAAAAAAAAAAAAAAAAAAAAAAAAAAAAAAAAAAAAAAAAAAAAAAAAAAAAAAAAAAAAAAAAAAAAAAAAAAAAAAAAAAAAAAAAAAAAAAAAAAAAAAAAAAAAAAAAAAAAAAAAAAAAAAAAAAAAAAAAAAAAAAAAAAAAAAAAAAAAAAAAAAAAAAAAAAAAAAAAAAAAAAAAAAAAAAAAAAAAAAAAAAAAAAAAAAAAAAAAAAAAAAAAAAAAAAAAAAAAAAAAAAAAAAAAAAAAAAAAAAAAAAAAAAAAAAAAAAAAAAAAAAAAAAAAAAAAAAAAAAAAAAAAAAAAAAAAAAAAAAAAAAAAAAAAAAAAAAAAAAAAAAAAAAAAAAAAAAAAAAAAAAAAAAAAAAAAAAAAAAAAAAAAAAAAAAAAAAAAAAAAAAAAAAAAAAAAAAAAAAAAAAAAAAAAAAAAAAAAAAAAAAAAAAAAAAAAAAAAAAAAAAAAAAAAAAAAAAAAAAAAAAAAAAAAAAAAAAAAAAAAAAAAAAAAAAAAAAAAAAAAAAAAAAAAAAAAAAAAAAAAAAAAAAAAAAAAAAAAAAAAAAAAAAAAAAAAAAAAAAAAAAAAAAAAAAAAAAAAAAAAAAAAAAAAAAAAAAAAAAAAAAAAAAAAAAAAAAAAAAAAAAAAAAAAAAAAAAAAAAAAAAAAAAAAAAAAAAAAAAAAAAAAAAAAAAAAAAAAAAAAAAAAAAAAAAAAAAAAAAAAAAAAAAAAAAAAAAAAAH//xAAwEAABBQABAQgCAAUFAQAAAAAEAQIDBQYABxAREhQVFjU2E2AgITRwwCMkMzdAR//aAAgBAQABBQL/ABVPuXncvO5e1zHtT/wdy9vdzu/fMjcmusNfcnV1rBq7BHTVtdoKz+bH398lmD2K1U7PC7u7Ea5U5hQZJC+xGuXtRqrzD2pRxNv8ryhtiwJepCIhXhXu/esh9i6hfOc6cSKllblLU6bXpDJmszZqPNq/I1c5kURmTpK4UCkTUm/k1VWM0PK08Eo02oKR9pX+ZoMjcT2ERl/KSNkKaI95GnIZMUINeZ/I1CWh9lpGBlZCQI0m4+V4H/V694QigadCCNEClDb1pcR+eitpWWegs2Vwbl8Tv3XIfYuoXznOnA7vzaEppl1p/ptP8r1IVfU/E7w2c4kOS9TouWl20mgZ/PpzySxtyaTp3/xhCTGSZF0bcj6lRcA0A0AnTnu8hN3/AJem/i9RuPleB/1fUnxfmb3+Le/B4I/y1rHRIzY35y2Fr+7ZqCrFJ0TKm2PhraCJbXRQMArBhiZbWWkNpqYSsYbqVqLWXlBbBz1S5iBHaM8RR8ndQDjy5gVz7w0Ierwh4wpPlBKGDJXTa2YjOBESnzgVFRlbb0qwsaMCwIzx1PUTaEav/JwVUQm+s6m0JBz4Is+tt22psb3wy6K2Y3Nf2TzUg0V3owFPtL+x9QL/ALKK5yp+2VdYTZOXJ26J7WteH09iE3kbHSPhzNi5k2ZsUZJG+N9XVlWXHZO3anta14fWnA8rK8iwmXJ3CJ7XtOJk7hUmCnhsG5O3dz2vacnzVvE17XMeDnLM0X2pbeL2pbeI7OWYQvAx5CiUyduqe17ThtDaCM/giyttLHZUR9fAzK2z22NEeAOPmLSeOfPWMJHtO47va9pxMnbu5ZV5NeTHlbaRp2esQhxc1ZkwrlbVFfl7dGlikCy1dcTYyLk7dE9r2nEyVwvC4JBif15FVOaJzlw/jfzAETFgWEbIjq0aLPZ40sgycMqcSY0eLR55FVOahzlxiSPRc/ItlkkVU4rlXp5XQTnG0R5Nbcav7F02e5Wmud5zJmEw3fUaGFhpNhMFiMS9ztJtnuboxT5jMV2Yh7nZ3xu508LIcVqoYoL/ALcCc+G22UL4L/pwk6m6+Bw19iO+Bs00ks2Uc52PgbJNMkptNbb13juOnL3eqah7lvsO53uHeOVNCOURBJVSx6elnjkHntnOXAVgpFgZkrAgW60nz36/YIGuOGHyz5r2UqkrRk/IX1GVUrOzpuveCa1GG2iBOyMMeW/JdtNlpOCIOuDyUNB6kb3oeQ+WSbppwmPN+YqRARw7c4o8yQqeQfD/AGPcfY4ip4h+zB+H0H8WY5V+XQA5hDC+0CdRjeokCSRRTupcv1AhSYYj/YYnmM8HtXPw5tbTV/YiJZpXdOfltN8/h/se9+w86bKvqGo7k0EyCLiMlFRIS1zmTSve+T9f0P0TkH+v0+IBmHBsFTQ5NeJyp7s/lVVVXTfSedOWStBOWNTf/nVQZ5CxrYnn3Wq+w9NOGf1nTeRUPua6QrQcw/2PcfY+3D/XeYdkztB1BWJbz+Cti9cx21IbJbUrFusbuZmrZcyP1ASZRyjZnWlvuo/xWvTn5bTfP4f7FvfsPMeN6TUnTuKMtf8Ar+kPWtsMzA4m+0fzv69UlBjOn1gk4tpOKQRndEOJWXljEYtTZFVpE9lR2D4LGhAkt7QuznqSwhlL1IZQyW1M1bLSmlDVZAo8ztUIoXqlJwHSgBcPNYXcAagIBtrZVxcOes1qrG6vwZo+V19Wgusb+uOd2BSRRFC6kMUb1Wk57ofBDNI+aUW4BjzXbm791RDPI6afM3i07jiHlmASwQlD6oSAT1Sk4Hoa0N+gtEtT67SAAcuLivPZU3lfXobf1hk8V9XjLcXR1otSSINJPqhJg/VKTgWoCC5ZE+bP/wAXd//EAEgQAAECBAQACQYLBgUFAAAAAAECAwAEERIFEyExEBQiMkFRcXOxI1JhcpPBICQzNUJggYKDkaE0Q0RTcNEVkqOywAZAYmPx/9oACAEBAAY/Av8Aiqmx+ACpKgFbVG//AGO39AJXD1lCpfmUsEBiVWhKMsGlgMfGG5eYR5qkUhU7hjYl5pPObGxPVGo1BiXlhKhrL3NfDh1BHBWhpw1APA7OKR5JpsgE9JPDoCeHQGFy0yULQ22LeTtE13yvHgSyyUZa3BcFJrEpQU5BitDT69ynrQO6HBMN9Cm6/rE6WmGHAo7OJqNdYlJlEu00pxSSbU06IakzKy7rbjupWip1hudEsyt8psZbt5I61GFTeIPMrcKL0KSkCw9UKxvEGg8f3LZ29EcuXlVM/wAvL0hjF5BFjL1LkDZMO4riI+LNVonzoKZSXlmWPooywdITjK5RuVmUUUQjmuJ66RNJdbZQGUi0ITTrhxgycmgLFKpa1hybm/2VjcecYKJGXlmZcGiU5fRC8Ul5dDE418oEbKg5tchrVfp9EKlMNkpYMNG2pTvDk8w0mXmLbXmk80+kRN98rx4GvXHjDM/NNh91ItZaO1eswmWxCSljLuG02o5sNTcq2hbC6lKVioB6oenGJCV402DVGWKVhc6JaWKlilhRyfyiVTxCU426i5YyxRME9f12lPWgd0OCZmyOQE2AxMvo1SV6dkYd93wiV71PjEuOjK98WXG3qiUW/K8ZZojkhVOiPmL/AFjHE2cNUxL1AQq6oFI8n5pu/wA3BkG5Um1RKlBP6ExiPqJ98LQyASlBWanoETSsvNoV3oB52kfMX+sYfZkcHWlsgldF1pE7TnXDwhdd66xM+bl6/nE33yvHga9ceMSfm2mBTeJK7nXD/bHFlnkTAt+9CmVJ+Kt+X+7/APYemfok0R2fXeXxCYxZsKSKlq06HtjjIxthrkW0sJi6ZxrNHmttkR/huDNFlilCs7mFJmZ1EokDRSk1rDOHpxZtGTSiykmM9/Fm0hl7QWHlgdMJmEYu02ptulthNeBWC4qqxo6NudUXnGZTJ6+mkMYXhtTKsalXnqhzDMQ/ZndlebBcl8Ylcg6i46gQjBsNczUBVzzvnGJiXmXA2H0gJUdqxNvqnmph51stMoR6ekwtmZFZV7nf+PpgvSOLSwYVqAo82HcNkH+MTL/y7qdgOqLl1LDmjgHjCp2QxSWQ24bilZ2MKk0zSV6XOzB2UrqEOzcpiaHy45XLt1FeBsk0AWIOGvOhCEgFqaGoCv7QmancVllsIN1EnnQkM14u1oj0+mEuJ5KkmohuZb5L842Ejrp0/wBFJdc2BlXdOwhM0/kS0i2nlPZgJWIBQmyXaFjKOof0VoSafW1aZbLqje5VIqUMgd6I0DB/GEXzEqtKPO3HAEISVKOwEBb+TKpP81dIK5cszQH8lysFDiSlQ3BhfFsvkb3LpFShkfiiNEsHsdEfGpZbYOx6ILUvZcBXlKpFS2zTvRH8P7YRUNtH8UQZFYSHguzfSsclDJ7HRG0v7YRdxbMH/rUDBQtJSobgwiZYbbLa9qri2xmvVmiLbGa9WaIXMvtthtG9F8CJdq29e1TSKhDNO9Efw/thBW7KqKB9JHKHwQtCGiCK/KCM6ZDQTWmjgJiqUMkd6IL0wGgkGmjgJhLjaWSFCvyohphwMhbpIT5QRXLZp3oj+H9sI5KGT2OiBLzKUhZFdDWKoQyfxRC330tBKN/KCsIdZSyUrFR5QRQpYH4oi5LKHPUcBjLmWVtL6lCFolrKpFTcqkVLbIHeiP4f2wioba9oIcl3ee2q1X1f0JES6rjWjesc5X5xMy8yS60ggJu136Ifbb1SlwgfnCsTebCpxwcmvRXYQp6YdUtauuEvS7qm1p6oGItthE60DWnTTojQkRJqKjXka/ZGi1fnDgn/ACgAUm5XUI0MVJNcr3w3KtLotw0Fx0hCc1VuZY4muhid7yJwFRI5Pvh7lH5RXT6Yl0NuKtcXapNdCIl3UgBxaTd6YkUMKKFPEpKhuBDFyidFdPoh61RGidj6Inm31lamSACd6cM8CSaXU/yxzj+cPSilqWzZdQ9BiabZACLq0HwOKqV5N8U16xtExUkhw3j7YmXLjlBFD2xMIqSlZvH2xPYipRtYZoO2FOrWSpRrWsTlSTTM8IQ0hXKWQkawUZxDjK6KtVoYbX5zCTDwuNMr3xOVUflIZFxpQ+ELoTzEwHGX3EKHSFQ7LTqRxlr6Y/QwtpWikG0wyok1sRAlmV0WQTyjpDLWYotOqsWmukTvfK+sEsJ5bqGbUatiphKVTc4AfOTQRk4ZKttyi/36VXGGwvZSxX84lUjbM93DNoO148IfQnYOKA/OJMT63UNURq2KmtIF8xPEelEWYLkKw4DUM8+nAgTSlpZyuUUDXeLpR59yYSOSHRSHiN8w+MKceUpTh5xVvE7933w5fMz115r5MQZ/AmhOvp/mroU/ZCnps8va3zfRDcut0qaa5ieqGOxXhD/Ynwhxhtwpbd56evhnb623GtPVj9pn/ZiHE/8ATC2M8jl53Ph1M0FB+7l3b1+Ay+k0KFgxKYgjYi33iJVSdHpp7MPqxJ4k3soWn7dRDLWzk6u49nBNZtbLl3U3pSGcp+ZU6DVsOpoKxO95AL61qIFBd1Q93Xvic70wx2K8IX6ieCZHRle+J2n80xLidU4lmxNS2KmHFSLzy5gIPyopp6IubJCgdCIUtwkrJ5RP1gluxvgVfrRg/pEtOqUm1+toG+kB1jlTDWpQN6jfhXMTPJfe5QR016BBJ3iT/D8OCaccqGVKFtf1h8tfJ5ht7Kx+F74Zm7L8s1trvDSEp1cdr2axO95E7933w93h8YmW66FutPtjE8koSGQXVV6uBjsV4Q/2J8PgT/3v9vAypoKtSDmEdVIFlLw2L/gty1eWghNT6D/aOLNnycsgNgQqSuGY2bR9m0NybfMlWwjgnPv+ENPgVLagqFupbtU+5oneGm6c2XSIe7r3xOd6YY7FeEL9RPBMYlPeSvGgVoaD+8PTKt3FFUM+oiEzQbvoCLa9cSyQPp3Hsid75X1fWZyRE2DzaqpSOKu4UFM+ZfpAXKSglUU5t1YVh08ytxrWhT1HohlmVaLMrLptbSTr2xnSq6daTsYzZ3D3WHfpKYVoYzZPD3ph0c1T6tBGbMr25qRsmF8bkEzdebVVKQJZ/CQtpOycyLk4C1X0uGOKsoblWKUtbEKVNyYmkkUCSqlI4kcKHF6Usv6I+YUe1MVlcGQ0esK1hc6tnkLcuLdejqhSZTCUtBW9HIcysKQw8s1zAuBM2XppapPoiYVIyy0zE0gIccV1cCXGMHSl4JpfmQXJjB0qdKaX5nChx9nObG6K0rCpeXwlLbSt0he8fMKPamC1hsjLyYPSBUwp11ZWtRqSemHMPXJXPmvKp+vwHmsnNCzUa0oYW6vnLUVGHvJZqXKaVpDsyvnOKrCXJiXEw2N0VpWDKs4SlDJ3SFx8wo9qYvlsEbQrrv1gTOTl0SE0rBMrhCW1KFFEObw6r/CkomF/vb4bW3hKc9KaFy/eM+ZwVLjh0qXYulcDl0q61KrA4wuiBshOghapuSE0kjQFVKQJRzCQpgfQzI+YUe1MfFcHQ12Kh6ZttzVlVOr/AIu9/8QAKxABAAIBAwIGAgIDAQEAAAAAAQARITFRYRBBcYGRobHwYMEg8XDR4cAw/9oACAEBAAE/If8AyqY2g+k/rJV2fTqb9LaAOP8A5Aun8+Z6dROgsUaifnlB3UdgU1mNA9lmZnIkB9xNkq83A+GVQ7yHiIwqudmqrYSunvcHT3uVjraCNw6IcAwwKseUdehtiGx1KVQbES5VjGmO0+93dFlnBbZrWUEW0jmI2Eu9fnfuvwz7fnpdjBRyQCpTj1DCUTjL1LEF/uoHAwzMq8EUbAauaJxe8vU1rtFuEv1Y+L7Tvxs14bXKgD7oJhJbwNPpUzfEGiseDFzfkxwSl2MbydUM/wDEujwGD4M/UyBdPFTArc7e5iIBadV648MyjtIq7u0MtRm7mHyg71v0bNqfU7un0+yJZbr+1vhTms0Bj0nLYB7OR3JS05kAz7kwGT6nTTdiEvK8gy8QLXj8291+Gfb89MfREd27Yw2Ge4wfE+zz6aZBaXDzTnleePSXP8bhG2bJwYat8KUrqB3Wk8d9P1YoToKcBY2MFs1+0oHBi/Dpi4+J5sVbtMB8tU0FfPlrdw3C8Pm0T6nd0+n2Q2s6Pxslm4YlQ/lN0BXYw7U0/wBTuACuncHw8pe5xZ7HB+b4tNLLGjBgyC3SczFXurH5m0TnB3rx3lycKN22I511YKKyQ13/APNMXsMZ+C/uKVt0qVjZbB2p7ymNe8/YuK0jZ9b59YsutsW1Hh9oCE1vyDMZVs0452CCgF4vzlnM421q8iJ0xKl20w2rWI+7U3CCRqmiHZNE42jbyTv21INf6gypqCaA4yAYfrYCVz0BchXYucyAiRGDnyHbMkEEC3d/ekYFGbZIJA86w+r6/wCFHXRknJ2XzmMfAAWcB37BL9gdg9/F/wAKgWhoLg/LSlQDT1+M5swhBMLbEU49qfkOjRvoVqxy9ArfpNVh1DPKM9+h0kcATTC17XKI3dCC4Z2WsdLkpS15zUVPWa85SY3NE44a0rcgRICO8584FYu6JW02RojnwXQDQKRhVAtiOtaT9o1P2jUOkFsV9OmdAVhvWWWtxROOE8hWoB6fwIE/wSSgKNbA8Q89bJD3mRmHECm06lMFSAbRbe0ErTdg6HKsXdENs0lKnmACaXhIRLrA3ohdE61TxLsrZOLw2yE8BQCY0uo8fOc2QaJxThWZuSFAGANln4/7fDEIjvtlgTYXmmzHAIZhCik+xB5s1GvQfLEBJarHkdolALFfbhIAt7qXjqR/0BilDb2y5yyAdxRM90hDD4kQtDwZdK7t5nKPBU0XLDWtCd0zBPrBC3BYLA/7UJXJ5yUcQx0xDscLEjmhQFWpyQ4nvnJrgRr/AI2jSr6CjY0wLYsjpH9umryN2XfuAORGgKC+/wDC2lTRaZv9IaHS97RhQ8Vwpx+44jC97ZRXcIFwrJ8R8XWu5nYLC3SWuZIVWwmkFol3M6kpsr3a4l6LQvCB6S5Syt7BpcBotp4mjgZRMeCgVNuj+yWPu0vcYwlrbzrDHBCpgXM4sBZXoz67f8gzqB5L2jNcqz8xmjk5cVNXZd4Saw285Rk6eZ4Y9WyD50e3hgKeWIqw8ofOHIAe0vJVVNu679+jApqgmwlWgr52TmJFQVpCohvUHmaJluPQqLtuFX5HsL0MR5XGlAOwl36L9L6z7zf0kom1VpXS+uuxm9VaqhZMLVWHfw8fqA2i/gGaIT4Myb3rw/8ASPwmVa1/4e8Pm7ibD/ZECee9f6OhZI5g9jdcysloB+3SfQ4If5qLINDwn3eHWkn323TgIWCFohosdgt4xKznhY30gS63WDcbnp1K8/kQ06hGebHxLVPtGnKEeUdMYh5mSBGkpIFaNZrYirUivSyxmrTaz6nLoCGxAoNviVM2wtMldGxuT0GhIgKmwzTJh0vqiaJvtd0urr+Mf9QxyM0wLQ56feb/AOMnvehawJoC7XzqADodd817Smr7dSHSr72HW9UA4XbQTX7xEJks9rX7JTZVA7NZ/XT386gQhetMaOFS4LiAEDQja593h1pp9ttAzNOQnANLzUNilhtbPqN5lwXwWCpcfDT6DLABABpHj+Pl5kolveVG8AWINIIAkSru+YgkVociJmGhZyUy40rMPkl8N0G3wmogANu9TIWbEXBG3GcmKmqF6BWmkNU3SwekUI9lbG1y/p0Fm+J4LN50VLKKV+yczEMDteF28ooNb7z1mukVHvnGkuEdiaVRZOC6HsG/S9bKFbjLneU/eUrNtOp635/cy8IG8tehjrOhIWwIPaoCSmKqV0vrZ/DCi21FRxr8UFuZIn2ZO81xS+OJe6K/tN4CQ0wrevSrbkeYebMRzVO6Y2KVJfqhLo+rY71NcM93uYmAgmGDwlYD0VX1hEa7NT/uUUtOX74gZoAwAGmnTopLLC53zq5yXjvL/wAu9//aAAgBAQAAABD/AP8A/wD/AP8A/wD/AP8A/wD/AP8A/wD/AP8A/wD/AP8A/wD/AP8A/wD/AP8A/wD/AP8A/wD/AP8A/wD/AP8A/wD/AP8A/wD/AP8A/wD/AP8A/wD/AP8A/wD/AP8A/wD/AP8A/wD/AP8A/wD/AP8A/wD/AP8A/wD/AP8A/wD/AP8A/wD/AP8A/wD/AP8A/wD/AP8A/wD/AP8A/wD/AP8A/wD/AP8A/wD/AP8A/wD/AP8A/wD/AP8A/wD/AP8A/wD/AP8A/wD/AP8A/wD/AP8A/wD/AP8A/wD/AP8A/wD/AP8A/wD/AP8A/wD/AP8A/wD/AP8A/wD/AP8A/wD/AP8A/wD/AP8A/wD/AP8A/wD/AP8A/wD/AP8A/wD/AP8A/wD/AP8A/wD/AP8A/wD/AP8A/wD/AP8A/wD/AP8A/wD/AP8A/wD/AP8A/wD/AP8A/wD/AP8A/wD/AP8A/wD/AP8A/wD/AP8A/wD/AP8A/wD/AP8A/wD/AP8A/wD/AP8A/wD/AP8A/wD/AP8A/wD/AP8A/wD/AP8A/wD/AP8A/wD/AP8A/wD/AP8A/wD/AP8A/wD/AP8A/wD/AP8A/wD/AP8A/wD/AP8A/wD/AP8A/wD/AP8A/wD/AP8A/wD/AP8A/wD/AP8A/wD/AP8A/wD/AP8A/wD/AP8A/wD/AP8A/wD/AP8A/wD/AP8A/wD/AP8A/wD/AP8A/wD/AP8A/wD/AP8A/wD/AP8A/wD/AP8A/wD/AP8A/wD/AP8A/wD/AP8A/wD/AP8A/wD/AP8A/wD/AP8A/wD/AP8A/wD/AP8A/wD/AP8A/wD/AP8A/wD/AP8A/wD/AP8A/wD/AP8A/wD/AP8A/wD/AP8A/wD/AP8A/wD/AP8A/wD/AP8A/wD/AP8A/wD/AP8A/wD/AP8A/wD/AP8A/wD/AP8A/wD/AP8A/wD/AP8A/wD/AP8A/wD/AP8A/wD/AP8A/wD/AP8A/wD/AP8A/wD/AP8A/wD/AP8A/wD/AP8A/wD/AP8A/wD/AP8A/wD/AP8A/wD/AP8A/wD/AP8A/wD/AP8A/wD/AP8A/wD/AP8A/wD/AP8A/wD/AP8A/wD/AP8A/wD/AP8A/wD/AP8A/wD/AP8A/wD/AP8A/wD/AP8A/wD/AP8A/wD/AP8A/wD/AP8A/wD/AP8A/wD/AP8A/wD/AP8A/wD/AP8A/wD/AP8A/wD/AP8A/wD/AP8A/wD/AP8A/wD/AP8A/wD/AP8A/wD/AP8A/wD/AP8A/wD/AP8A/wD/AP8A/wD/AP8A/wD/AP8A/wD/AP8A/wD/AP8A/wD/AP8A/wD/AP8A/wD/AP8A/wD/AP8A/wD/AP8A/wD/AP8A/wD/AP8A/wD/AP8A/wD/AP8A/wD/AP8A/wD/AP8A/wD/AP8A/wD/AP8A/wD/AP8A/wD/AP8A/wD/AP8A/wD/AP8A/wD/AP8A/wD/AP8A/wD/AP8A/wD/AP8A/wD/AP8A/wD/AP8A/wD/AP8A/wD/AP8A/wD/AP8A/wD/AP8A/wD/AP8A/wD/AP8A/wD/AP8A/wD/AP8A/wD/AP8A/wD/AP8A/wD/AP8A/wD/AP8A/wD/AP8A/wD/AP8A/wD/AP8A/wD/AP8A/wD/AP8A/wD/AP8A/wD/AP8A/wD/AP8A/wD/AP8A/wD/AP8A/wD/AP8A/wD/AP8A/wD/AP8A/wD/AP8A/wD/AP8A/wD/AP8A/wD/AP8A/wD/AP8A/wD/AP8A/wD/AP8A/wD/AP8A/wD/AP8A/wD/AP8A/wD/AP8A/wD/AP8A/wD/AP8A/wD/AP8A/wD/AP8A/wD/AP8A/wD/APR//wCT/wD/AP8A/wD/AP8A/wD/AP8A/wD/AP8A/wD/AP8AvhJSwD//AP8A/wD/AP8A/wD/AP8A/wD/AP8A/wD/AP8AU/79cP8A/wD/AP8A/wD/AP8A/wD/AP8A/wD/AP8A/wD9/tJ0P/8A/wD/AP8A/wD/AP8A/wD/AP8A/wD/AP8A/wDoG0QuX/8A/wD/AP8A/wD/AP8A/wD/AP8A/wD/AP8A/wCAQARm/wD/AP8A/wD/AP8A/wD/AP8A/wD/AP8A/wD/AP8A/wD/AP8A7/8A/wD/AP8A/wD/AP8A/wD/AP8A/wD/AP8AmEtPMGZmRP8A/wD/AP8A/wD/AP8A/wD/AP8A/wD+I9l05fz9mf8A/wD/AP8A/wD/AP8A/wD/AP8A/wD9DhQfp4qC9/8A/wD/AP8A/wD/AP8A/wD/AP8A/wDuFNM9/UwO3/8A/wD/AP8A/wD/AP8A/wD/AP8A/wDurH4aWqtmf/8A/wD/AP8A/wD/AP8A/wD/AP8A/wD/AP8A/wD/AP8A/wD/AP8A/wD/AP8A/wD/AP8A/wD/AP8A/wD/AP8A/wD/AP8A/wD/AP8A/wD/AP8A/wD/AP8A/wD/AP8A/wD/AP8A/wD/AP8A/wD/AP8A/wD/AP8A/wD/AP8A/wD/AP8A/wD/AP8A/wD/AP8A/wD/AP8A/wD/AP8A/wD/AP8A/wD/AP8A/wD/AP8A/wD/AP8A/wD/AP8A/wD/AP8A/wD/AP8A/wD/AP8A/wD/AP8A/wD/AP8A/wD/AP8A/wD/AP8A/wD/AP8A/wD/AP8A/wD/AP8A/wD/AP8A/wD/AP8A/wD/AP8A/wD/AP8A/wD/AP8A/wD/AP8A/wD/AP8A/wD/AP8A/wD/AP8A/wD/AP8A/wD/AP8A/wD/AP8A/wD/AP8A/wD/AP8A/wD/AP8A/wD/AP8A/wD/AP8A/wD/AP8A/wD/AP8A/wD/AP8A/wD/AP8A/wD/AP8A/wD/AP8A/wD/AP8A/wD/AP8A/wD/AP8A/wD/AP8A/wD/AP8A/wD/AP8A/wD/AP8A/wD/AP8A/wD/AP8A/wD/AP8A/wD/AP8A/wD/AP8A/wD/AP8A/wD/AP8A/wD/AP8A/wD/AP8A/wD/AP8A/wD/AP8A/wD/AP8A/wD/AP8A/wD/AP8A/wD/AP8A/wD/AP8A/wD/AP8A/wD/AP8A/wD/AP8A/wD/AP8A/wD/AP8A/wD/AP8A/wD/AP8A/wD/AP8A/wD/AP8A/wD/AP8A/wD/AP8A/wD/AP8A/wD/AP8A/wD/AP8A/wD/AP8A/wD/AP8A/wD/AP8A/wD/AP8A/wD/AP8A/wD/AP8A/wD/AP8A/wD/AP8A/wD/AP8A/wD/AP8A/wD/AP8A/wD/AP8A/wD/AP8A/wD/AP8A/wD/AP8A/wD/AP8A/wD/AP8A/wD/AP8A/wD/AP8A/wD/AP8A/wD/AP8A/wD/AP8A/wD/AP8A/wD/AP8A/wD/AP8A/wD/AP8A/wD/AP8A/wD/AP8A/wD/AP8A/wD/AP8A/wD/AP8A/wD/AP8A/wD/AP8A/wD/AP8A/wD/AP8A/wD/AP8A/wD/AP8A/wD/AP8A/wD/AP8A/wD/AP8A/wD/AP8A/wD/AP8A/wD/AP8A/wD/AP8A/wD/AP8A/wD/AP8A/wD/AP8A/wD/AP8A/wD/AP8A/wD/AP8A/wD/AP8A/wD/AP8A/wD/AP8A/wD/AP8A/wD/AP8A/wD/AP8A/wD/AP8A/wD/AP8A/wD/AP8A/wD/AP8A/wD/AP8A/wD/AP8A/wD/AP8A/wD/AP8A/wD/AP8A/wD/AP8A/wD/AP8A/wD/AP8A/wD/AP8A/wD/AP8A/wD/AP8A/wD/AP8A/wD/AP8A/wD/AP8A/wD/AP8A/wD/AP8A/wD/AP8A/wD/AP8A/wD/AP8A/wD/AP8A/wD/AP8A/wD/AP8A/wD/AP8A/wD/AP8A/wD/AP8A/wD/AP8A/wD/AP8A/wD/AP8A/wD/AP8A/wD/AP8A/wD/AP8A/wD/AP8A/wD/AP8A/wD/AP8A/wD/AP8A/wD/AP8A/wD/AP8A/wD/AP8A/wD/AP8A/wD/AP8A/wD/AP8A/wD/AP8A/wD/AP8A/wD/AP8A/wD/AP8A/wD/AP8A/wD/AP8A/wD/AP8A/wD/AP8A/wD/AP8A/wD/AP8A/wD/AP8A/wD/AP8A/wD/AP8A/wD/AP8A/wD/AP8A/wD/AP8A/wD/AP8A/wD/AP8A/wD/AP8A/wD/AP8A/wD/AP8A/wD/AP8A/wD/AP8A/wD/AP8A/wD/AP8A/wD/AP8A/wD/AP8A/wD/AP8A/wD/AP8A/wD/AP8A/wD/AP8A/wD/AP/EACsQAQEAAgIBAwQCAgIDAQAAAAERACExQVFhcYEQkaHwYLEgwcDxMHDR4f/aAAgBAQABPxD/AIqkYBVnkWf90xBU/dYkwz19LagTyep/4nIFfQv+Rg5T7rETnn6H32gXG57gT+dmKIiBDsglUTvnEBkl1tNS9GHxJ3Mega+zg2ZdIEqDRTYhezLEEB+FbH7ZPHiGxoANO957jA9TEAUSlinzkxCh+d/lkyYgD+UofOTN5SMsYrTKXxrBts5yYl58LofbEmBc5YyKoYkoIL6Eo3rzhAQAJAQ+lvzAsoWxTXhzbfNAMn+MCQPzkyepkyep98n83pfrPP0EN74aij+XEZig0hDw1zUEkaVIQsuCDxGKkXgJQ98dRDEZhUAA94OSWt9t7JYh7uBR6Zd2A7dm9AuKlpsmvFy+cua8bk3gC0Timuc7IGCLLyDAO1x2XtEjteWczWCtUOPVAKjPHuZx6TTKhLJri0dllvPQ6xjmlvA6t47M5oYpPwVkwV7TxhkBdZI+4sDzdNwKJe8Wef1je4eubV8hGqEe3Fq5NFypoW5qI+3+C4o1Fa+O8gCa8uCh4UEaEFRC77nGGFXQrIo9CU39sZlfqFlBLKoXkmWnO2jF6NH3cdPMrIcBLVU34cRMFYIFbA8fzel+s84Mqpq8C/gAX3whqR+iN8mPyMH7zwxzmXRoW7+DLWYwrL56XBO3Wgg+gRJ5foutRNlCRU28995G3LdsNj4mPLiR4QIAe8BqHtn6Lxgy96BLm+ZwZzovyRtWxZLk9TmMf55qcjEn2xuO2Q8ifm4JDB+oLfXEafOeK5Pz/gOKULh/DmfiYQLo6ebrHIvP8P8AZMISKh02OcbLXrjbxEPy7PJye7LJ7E8dPfn5/mxiQMWyhuIy9G8rYN/2dwnniYfNe9kKoj4mHrRCv6hyPZtb1kTKpVpIiM3XNOhAl6iHNvOscW8jIjYRvSKTDZUqmIkSlZu9YQdZvYCaDao5bBamnIIihHJ7NnrjcDVtvO5YXbt8AxMUi4qmSb7B7Yz4gJ6wyEHeslOjyeH5FLrUALj6xrggrgUcXWsCxwIOnYZPhkHnhRH3C0BuTxj256HO9rsPUHzjJ6FT3oNigCyqty9N5FRaJ2rrsXHIGOFio2ILuimI/iBEgxddbwrgekT7AWxB9O81j/iPwBVfjE97DWNPyEF8ns4TkCdSgtWU2ArxkyKSiz7KwA8GQt1NFVH8ZogUg0u3MKD1GX+b3LlcuVyuXK/SuVkyuVysmVy5XLgpw5fpXK5frcrkdj7CxDPRD6c9ZKXDfJreWegufDklNXsV+Dr/ANKVzlAaj7B1/LTKD9cSE7bM4/1pX3c9DbcX2Li/jgAfek+ceMH2F2t0BtwuEc6/2MgMmUr8st30l/hHZmqVOu7TycdZsjsjr7ucKbr0oBd5daFE/AaYRzmdiTTou+MQAZUmPN4z9u/3gxN4UPuZMMXEKB4zTeIS1kFfjFgEMRtfvnBKV/qrcWxV+NyI8OObcswJVbNjgsV/ZHOJ1H9Ec4AxwzCgQc7fp1er14u1o4zVn7Z09eM/Tv8AeSLoaHld56zE+orMYDQlpKXw7xKQKoOtdzXOFGwbOpdzDDYICoa7wXe+RFRTk5zVC8XdwvTzl2iWVjzeM9L9PrnpW0X4w2jI6CDGunCjMqcJSzjDnBmksIdvOABS59a8jHwnysPhcDiP/hw4yIi3JPJ0ntggMaHphHk+2JSbrfuc2/sffCaHwkPyYAvQYNGJz/H3FUe2P6x71CKkOXL4nk/+2dGj2Gb3k0M6uIZNdiwD/WPJLpPxdrYb66xZiXMenADoMHFV+D6JwPRzTs0XpZyA2bLMQLndD+sfZbRTscIE2wJPznZsp6C/k1edZfLSVBwvAe64ab5wyj5QItkrwPWaLi8KnPhaPWJEURxyZ5cFBdkvsYJBB2MG/NCwRtcnI9ZNs+pHvJ2l9MlDcMLF0uinVxNSVdw9lca0hhgMcRxQLr1AC7RErv6ElBwjEyAe8jslmNU4f05y1uDoQKXgDE4zgwiAtnjZ19TWVpKNQCh6u/ll6xGJCw9kTDRY6I1m8ICuUKxGkdC+GmEaMIlIPXT74y4hC0Vm9c4cX4sUSw8YTW8mohfTeQ1+QKKEUGbMKIATxs/3lFlVqUgzDDoSUA0EwoDTOJWphQu8UOWNaGsB+d5dGwSAsnGxOB+cQY/ENgf6x0IpapPOHvkjBlUrweMMBCn3AA8IzZnB/S/4+YnouIEkR1MA8OM30ah6zLn5Q+yUAI6eJj3U0cgCX5cdyvDhph+jaIsDxYP9ZKPWXEA/BlZUgG1hHXb8YgR6kj1aQ9sBKuohaDs9oNvdxyClgljtNO5kgo8EJAmkD9lxUAnMEUTKqfksXNbufnZK46Fg1hvi3L2+M3lCNh1304JAmxaOxxG87uPypwXVjV36/RZ+w8MkNvHtXgunx9Qj0QtPMHbLMhVDx/8AphlDLlh0EgNzo42IA8yar5vN4k/w+J4eC/i4tN8/CVvzimocwqM9kDJzfRSFE+GHUqhInpfRPuY84hnjaGwHcWZJGIgti1W8DK5+XybK/pC0XocZ+a+hz9B5Z+z8voUS0J1QTImbWvKC/m4iqx3oBal5wxgRxIiDT0LaXL/LyhdEneN/ehXu2t2/x8M/ZeMjd5pa/XaLfeRjFre4cqUgK6i5djWBEYfNPJTFbkREiPjIoVMAKrkyjFZpwY0AHRcd007lVq4UNN4o+2XtNdZBXqQvpm4MvnND0nGOJaTQ4JYWM5xQDmmNb6Bd4QQAHAJkIWRTBIDNqaRAzyC++VkD0EEAdlZweuOBL5n7Dw+swJQ/7uI104sxdiwI/DwduJQeCNqvWj4mFssMWav+BL20KkfcofOFeXcoFn8GIx+4+W3zTE76PihH2wb4wJ+vrnBEDVEy9cZe86ygBZv7ZStnArC69sDX1YFzB+x2wLq/72MgCroMI4BO2KEewQ9vOe+SVAh8EwM0zkGKttnlHhj8YiwuFGyPpo++AqUAgb/x85EcdlVrmk1gGPOXQoUk1MHOFYFbflmxmZz3AnaonnHQwsqtb5XOHls9C7vR5Osh1dGdpWc+vOHOBYg4BOc6FJ7dPJ5eXGTCcTNujm65xVGIHmRAkHLknd9+q05sFqtfxB7ALks5SNbv6NYbbIk4mhov5z91/wB4reCvh5JMfODlb5pbBnIinnCHlNlZxULrDg2NQO3uvbItgl8EXhEHB38YDlBWo0uKYZYKwkAFBp15xjATDUidBi3f1tky2BOI2ec2pSjIylK01zkdlvWf953Y5b++l8LcW0asTlXBgSu7FTg6DH6GHYlt0WzhogfbL/BPlS/LlN6jJ74PIz4M4C97dnXwIfGbhxmFoNNkY4vxk4Jlsqp3bn7r/vDYNwr2gqfGOVMj5Q2w5uMuZoA9jC71glPgoJNhBYTFUpNbSQaFx7RTJ0BIOMveFcV0iGZsC0M/KXb1cGmkSC1rlTUy/YvuEyB1ni/R9cb3mEl4WkfOfcNQNl7/AOLvf//Z;" vertex="1" parent="1">
          <mxGeometry x="190" y="420" width="880" height="292.5" as="geometry" />
        </mxCell>
        <mxCell id="EHzQNXyAd45b1-Ulsyj4-5" value="G" style="ellipse;whiteSpace=wrap;html=1;aspect=fixed;" vertex="1" parent="1">
          <mxGeometry x="200" y="240" width="80" height="80" as="geometry" />
        </mxCell>
        <mxCell id="EHzQNXyAd45b1-Ulsyj4-6" value="READ(FD:5)" style="whiteSpace=wrap;html=1;shape=mxgraph.basic.oval_callout" vertex="1" parent="1">
          <mxGeometry x="270" y="197" width="100" height="60" as="geometry" />
        </mxCell>
        <mxCell id="EHzQNXyAd45b1-Ulsyj4-7" value="Принял" style="whiteSpace=wrap;html=1;shape=mxgraph.basic.oval_callout" vertex="1" parent="1">
          <mxGeometry x="510" y="180" width="100" height="60" as="geometry" />
        </mxCell>
        <mxCell id="EHzQNXyAd45b1-Ulsyj4-8" value="" style="shape=image;verticalLabelPosition=bottom;labelBackgroundColor=#ffffff;verticalAlign=top;aspect=fixed;imageAspect=0;image=data:image/png,iVBORw0KGgoAAAANSUhEUgAAAZAAAAEuCAYAAACgf0TJAAAABHNCSVQICAgIfAhkiAAAIABJREFUeJzsnXeYU1X6xz83mT4MwzAMXaoiCFgoCgKi0kVAFBR1BVFRQV1sqGvBtRdW7F3Xsurae13Fn1hWFAVsq6ggAoL03qbk/v54E8jMpJ97kpvM+TxPHpjMzXvPJDfne8973mJ9dA4fYTAYDAZDnFj2TOxUD8JgMBgM6Ycn1QMwGAwGQ3piBMRgMBgMCZEV6kmfjW/9dtYnezAGg8FgcB8NC2josWovOEIKyPrtrC+7ijL9wzIYDAaD21l5DSubFtG05vPGhWUwGAyGhDACYjAYDIaEMAJiMBgMhoQwAmIwGAyGhDACYjAYDIaEMAJiMBgMhoQwAmIwGAyGhAiZB2IwGAxRyAKKgh4FQCFQD8gPeuQCOf5Hlv/hRW5ePYDlt2cHPaqAyqB/y4MeO/2PHcB2YJv/3+3AVmCL/zlT4y8JGAExGAwBcoHm/kcLoKn/0QRoBJQBpUAJIhoeqguBVdukdoKFx+d/VAGbgfVBjzX+x2pgFbAS+BNYAWxK+qgzBF0C4gXG+v/VgQ28itx1GAyJ0hAYivrEtwz4WH04SaE+sC/QAdjb/2gLtEaEwkvqxCARgscaPN8UQO3M6SCChWcL8hku8T9+A371PxYhKx9DCHQJSA7wGJCnyX4lctEbATEkigXcCfxF0U45MEh9OI6TjYjEQcABQBf/owXpIw46CRaeBv5H1xDHVSIi8iPwPfAt8A2w2P+7Oo1xYRnqKscBJyrasIGZpH714UHcS72BQ4FDgAOR1YZBjSxkxbYvcEzQ8xsRIfkSmON//Im40OoMRkAMdZFmwF2ou1i/Ba5TH05CNAQOAwYC/YFO6HMZG2rTAHnf+/t/9gELgU+BD4DZyH5LRm/mGwEx1DU8iOuqmaKdncCZJM+N6kHctiOBo5HVRn6Szm2IjgcR8U7AJKAC+Bp4C3gd+AHZ3M8ojIAY6honIu4rFWzgVsR9oZu2wBgkKKUbZpWRLmQDvfyPa5E9lJeAfyMrlYxwdRkBMdQl9kL2LFQTaL8GblIfTlgKkFXG6YiLJFfjuQz6sYD9/I/Lgc+RIKOXSPMQYpOJbqgreIG7gcaKdrYjrqudyiOqTQvgauAn4FlgMEY8Mg0v0Bd4FFmJ3Ay0SumIFDACYqgrjEf2D1SwgRuA+erDqUZbRNz+B/wdWSmZUNvMpwlwKRIefB+Si5NWGAEx1AXaAP9AbVK2kVDNfzgxID+BaLBvgXMxYbd1lSJgMnId3IBEeKUFRkAMmY4XeAAJe1VhOxJd40RWci5wATJhnIfUjzIY6iN7JPORwAnXr0KNgBgynUnIXoIKNjAdCcVU5WDgv8BtSH0pg6EmbZA9sKeQ2mOuxQiIIZPpgITbqt7JfYLkjqiQjYjQx0g4ruvvLg0pxQuchLhNe6R4LGExAmLIVLxIpEuRop2tSDitShJYU+AdZIPcRFUZ4mFv4ENgdKoHEgojIIZM5XygjwN2LkOqsiZKNyTufwBm1WFIjCLgOWBCqgdSEyMghkykI3A96lFX/wHuV7AxCLl7bKNgw2AAcYE+ApyQ6oEEYwTEkGlkA0+g3kpgE3AGiZecGA68BhQrjsNgCJAFPI4kIroCIyCGTONSoKeiDRtxgS1L8PWDgBcwxQ4NzpOHuLMiNctKGqYWliGTOAi4AnXX1RvAkwm+vjuZLx520L8+qreUrULKvOxiTx/zCqT5UmXQMcGvgz0NnjxIAIQXWU1mIQ3qAr3V8/3PB44N/hfqxj5Tc+AhYBQpLhdvBMSQKeQjUVeqrqu1wBQS+2K2QArkpZPbykYmXR8y0e9kT9/w1cj7sc7/2AhsQPqNb0Yi1Lb7Hzv8r61IYAwWIgqFSK2yUqSgZLb/9+X+c6zzj2sXMnfl+48rRJIx67Onu2Cp/9HIb7MJkvlfwh5hSmexGY6U53kilYMwAmLIFC5HuvCp4ENcV38k8No8JPHLzfWMypH+34Ge34v9//8dWIFMzuvRX2o8G9gH8eX3QFrttkEm++A5yaK2kJcjnf8WIuX0PwS+IPa+LPlI98bmSBHDtkA7/3g6IKKTi/vFxYNUhH4D+cxSghEQQybQC5iG+pf+RaRfQyJcxZ7udKkkMOHuQMTha6T16nfAL8ByUtPLOwvJwh8HDEMm7VjcTjV/l4uIdGtkr+kKRFBeQaKUviGyAO4Alvofc0KcqzHQHumPfhDiktwXWeG4TVSaAZcgoeYpwQiIId2ph/iDVRP0ViCrj0RcV/2Bi0ndBGMj7qT5wEdI5vw3wJoUjSeYPKSu0/nIhBzY63CCgJ1mSDHCM4H3kBDumuIQCzayCluFlJsJ0AARlH7AkciqqT7uEJTJSCXnRFbNyhgBMaQ70xEXiApVwFRgZQKvrY/kiuQojiFebGSP4h2kZeonyH6FW7CQFcLN7HEt6pxwLWQ+OwqpffZP4G/Ino0qG5H39xPgRmQf5VBkE3s4ImCpEpP6iDhPS8XJTRivIZ3pD/wV9S/vM8jmdyL8DemDnSx2AW8jd/V7AxMR942bxKMI6W/xJiIeTq46ohHYkD8TWUWo7ouFYgPS6/xMZO9kJPIZ7NBwrlg4jRQV5jQCYkhXGiBl2lVdV0sR91MirqtOSDn2ZLADeBhxAw0HXkbcVm6jNbKxfRZ7wm1TgYXsXXwADNR4nu2IUB6LrIRvJ/ltahsCpyT5nIAREEP6ciNSskSFSkQAVifwWgu4Dgkh1YkPeBWpqXUm8KPm86mwDzAL2Xh2w/6AhUyuLyG1yHSzGLgQEZIHcaZ3TKxMIgVbEkZADOnIUKTMiCqPImGQidAL8YHrZAMS638c0ifdzeyFuNaCo6vcgIW41P6NbIQng+XA2YhoJetz2xfZ5E8qRkAM6UYp4l/PjnZgFH5F9i8ScV1ZSPiorjs+G3GtHQE8jf68DFXygeeR8Fc3iUcAC9kjeIbkJnl+CvRGaqLpxoPcbCQVIyCGdONWJPlLhQok/DHRCJ3uwBDFMURiDZIr8Y3GczjJtcAhuFM8AlhAZyT5LplsBMaSeGmceDgaicpKGkZADOnESJzpiXA/srmaKOejb/VRhex1/E+TfafpiYRAu1k8AlhIc7DDk3zeCv95X9V8nlIkTyVpGAExpAuNgHuRInuJYiM+6SsVbLREIm508RqS15EOWEhv93TKJ8tGAjCSPeZKxMX0vcZzWMh+WdIwAmJIByzgDmTyVqESCS/domDjVPRV2i0HriHFFVbjYAjS9TEdVh8BLMTdNjwF594CnIzefJGBSIHJpGAExJAOHAecqGjDRkToYwUbWejbqLSB94FvNdnXwYWkl3gEsICLSM389y2yAtJFE6TUSlIwAmJwO02RWj+q1+oPwN8VbfRBch108ZBG206zL7KXkK4C0htJykwFM9EX3mshARhJwQiIwc14gHtQ7762C8kbibXkdzhUV0GR+BO1jf1kcwLptfdREy8pyt5GrsOr0eeqHEiShN0IiMHNnIj6hrUN/APpGaFCDnoTB99GXeCShQWMTvUgFLGQz1O1AVmivIKU2NdBZ8SVpR0jIAa30grZs1BtT7sAKTmiSm/09aEOtNFNF1oB+5Ge7qtgWiElYlJBBXCnJtv5SKCAdoyAGNyIBymUqFphdCcSf79LeUSSg6KLbcBnGu07TW/UKwG4AQu9CaHReAHpPaKDwzTZrYYREIMbOQOpd6WCjaw85qsPBwv18UTiW9xVjj0aSbm7TQIWqQ0E2IKUgNHBoZrsVsMIiMFttANuQf1LPQfZ+3CClujt+aESWpwKUhW9pIOuJLn8Rw2eRs9m+n5IJWKtGAExuAkv0vOigaKd7YjrqkJ5RMKR6L1L/W/0Q1yDF+hA+u9/BGiAhCSninlIYU+nqY+IiFaMgBjcxDmo1/KxkVIlTvbN6O+grZrsRDb604VGqAu829DRtTBWKpC2xDroqcnuboyAGNzCvsD1Dtj5GLjLATvB9HHYXjB/IP0j0oXGJLf/ux3h4RTa79Sj8LYmu9ojzNI5EciQOWQDjyCNf1TYgnRmq1Ie0R5K0Zt9/i3pU/sKJJQ5WTeeNlI36lXgP8AypDdKS2AEEhmXi7o7rYPi61X5AmmD63SvkkA/em3XlxEQgxs4H/W7fBtpEPWL+nCq0RN9/n6b9Kp9BSKo4QhMVFuQwpUNkPcu3vcvYOdz5IYgVGn7p5HWsfehVtDRQvrLeHH2xiMeNiJuTKddpW0QUdrosN3dGBeWIdV0Qco6qE7S7yO5I06j2w2gs7y3DuqFed4GFiIrg2ZAC8Q19BAiJvHyJjCY8H1RbCSTezDwImp32Y1IXUZ6AB15QIVIVKM2jIAYUkku0pe8UNHOBqQHtY47SJ0brIH+JOlEqFLhNjAbSTB8C4mC24kIytlIE7BYkzltpBXsOCTBMho7/PY/I3ERaYC6+1SVORpsWsgNmjaMgBhSyTTUI0Vs4BLgN/XhhGR/TXZBJtp02kCH0BvofyLFFcO5Sp4h9v7zO4CJxFcXbAeSfJponw0vkV1zyWABzoWdB6M1QMAIiCFV9AQuR73W1ZvAPx0ZUW3yUe+/HonVaPRPa6LmnBHI+F8d5XX3IPkukUTERvKAFiUwroVIIEaiqxDVsjmq/Ol/OI3OBFgjIIaUUIB82VU7+61Fckd8yiMKTQf01nxKZKJ0EzYigE/EcGwFcAORJ/gqpG1xOLKJ3NL4bhLbb4HU57ZUoMeduQ8a53kjIIZUcDXqriEf0lVumfpwwrIPejOuF2u0rYuaYh3Y84iFWUiUXDgR+YLQUXT1EWH5HUkQPYvQn8uvSORWIquQkgRe4zThAgZUaIH6HmNYjIAYkk1fYKoDdl5AQjl1srdm+7r2bXRS8w5/do2fC5DOjw8CHWv8rhx4N4xdG/gwxPPZwLPAZCS6ax9ETE4PY2dWmOejkbQ+4hFYqMFmEZL8qQUjIIZkUoRMLLmKdlYguSO6XFcB2mi2/7tm+zrYWePnmpPe7cB0JH9jFtC6xu8jRRv9EOK545FKyMErDi9StSDUqiGUjVhIdRgvOJ/DBPK+absRMgJiSCbXoR4VUgX8FT0bjjVpo9G2jV73my5quqs2B/2/ORJSG0gebIa4K4NZEsH2hho/e4AphHZXNQaOCvH8MhJzYbkhqXoJem6KtOWCGAExJIsjETeECjbitnpZfTgx0VKj7SpgpUb7uqgpIMGTdW+qh/kGWt8GlxXfSvgJvqZ7rBToHmEsoaoXJNoW2A0Csg55f5xGWyShERBDMihGssRVi/AtBS4mebWjWmi0vYv0aiIVYEuNn4Mj6UK9X8VU3wupJPznVzPCqiXhrxmL0AKfaNRcpOiuZLGZ6is6p6jpRnQMIyAG3VjAzagXJKwEzgPWKI8oNuoRvmyHE2xFz2Shm5pjDhaNcMJQ5v+3BBhE+Mi2E5FOeoH9iEgb23YYO80j2I+EG/qbVKHHNatNQNywbDNkNkORLGEVbOBxJGkwWTRC7w1WMvZwdLAR8dMH7tgPZI9LMdyeThvgVmR/pCzHi7VXAyguAMuCbTth9Ras9Ts41X/MMqQCb7R2xKFcgIkmzrlBQEDPddEUWZk5nuluBMSgk4ZIyKXqdfYbcCnJLXveCL2TSroKyDZkNehF3p8BSNQVwJfIJFXT7TQDyOrWEmtSHxjRGZrWA6//3bWBrRXw459YL3+H9a8vab1iE38lem2zr0I8d1gifxTuEZBoGf2JUIZEPhoBMaQNFtKTXHUDrxLZfF+vPKL4aIjeSWWVRts62U71if0QoD2SVb8SeA84mj3vnVWST/aM0TC+h6iOjX/5ErgdsKEwC7q3gIP3gqsGwb++wrr5fbJ+rxmXtYc1yColmFL0tx/WjY59sXzkenZ8g97sgRh0MQJxR6jyINJMKNk0jH6IEjruNJNBYAUSwIOEVYNIwmUEiX3X5vD5hTC6K0x5AZpNh+bT4cvl7BaQLRXQ4QYovQKGPQTLNsDZh8B3l8F1R0OD2hka2xG3aM338DTckRCowjoNNi1kb8hxjIAYdNAYafSjen39ghRcTAVOd4erSbKCAZxmF9Wr3lpI0mBn/89LEdeSPbgjzD4P9m0Ir38Lj3wuB59xKHRqzO51QlEOXDwQGhfBuz/CHZ/4n8+GK4+EH6+Avw2Csj0FObzAX5A8kIC7rAwpbZPu6CquqUVAjAvL4DQWUnlVNQS2ApmYUhWppLs/RDqG8IJsoNfMtchDSrafA9xjwf6T+2Lddgzk+VMK/9IDOjSGLs2hfo1ZxwLOPhgm9IA5v4sbK5imBXDjULhiMLz2HTzxJbmzFjK2ymYMIliPIPkiQbIUN25xe23SZLeZDqNGQAxOcwIwxgE7d1C7zlIy0S0gOlwVyaJmoycL6ArMzsvCunss1uk9q8/IWRYc2orw07QF+V44om2IY/w/F3rhpAPgxINg6UasJ7/CeuQzWi/dyHXVj0wItwhIzTwbp2iiw6hxYRmcpDlwF+pfxu/ZE9mTKlRLzUfCJr0FJFTJdKtdKZ5Pzsc6o2eYCyCWqyLaMRZYNrQuhquOhEXTsZ6agNW2VPmac4uAxNKFMRGMgBhcjQXcz56ksUQpRzZDaxbtSzY6N2MDfTTSlVrZ4cfsD19dDD20OEpC4N+Az7Lh5P3hm0tgiFqVNdUqCU6RaCmWaGipyGsExOAUpwIjHbBzCzDXATuqqFYMjkQV6ZmFDjJn7K6CawFXDYWXToWSXJJ2H29b8OFvMP0/UG7Lhvtz46FZ4o5HbT0z4kTXjZPqjV1IjIAYnKAVcJuiDRvJPL5efTiOoLMTYRX6fN26KSJof+jEHvC3gfDxYv219YP5YDGMfAie/BJ8/tVIcTac1DMhcxbuaCgFEuWmI2G2IRrmeyMgBlU8wEOofwF3Ia6rcuUROYMRkNCUEuTuOaYrzPkNjrwH7vxU/8l9wJPzYPRDkO2BZyZAXlAZxEaJVy/TWXk5HqrQo8XFaCgYaQTEoMqZwGAH7FwPLHDAjlPo/G5sJ/He3almL4LENccDB7SAkgK4/HX4QFOXd9uGTeUw+SWY+LSc790p/siuwDHA4sSDo/dFb+BErFShZwXSAA1Rt0ZADCrsjVTaVfF820gv7BmOjMg5dH430nX/A2p0t3t3ITTMg+dOg5wsOPYReMfhvno28Nky6H07PPQZ9GsPn50Ph9TINFq9A16Yl/BpylCvGO0ENnoEJB8NXReNgBgSJQspM6Kasb0NKUvhFtdVAJ05UuksINVinR77HBaug4Ht4L1zoCgXjn0Y7v5v9EqIsbBmO0x9DQbcDUs3wLXD4b2zoFUR1W5bfMAFr8DGxLegLeAI1fE6gC4B0bLPYwTEkCjn4MwX7hok78Nt6BSQdN3/ACnfvptdVTDuCVi/C3o1h4+nQqemMPVFOPFfsDLerAZbZs/1O+HGD6HzzXDfx3BUZ/jyIrhqAOQG6gD78QHXvQ///lr1T+MoUp8P4kOPgNiIG8tRTCa6IRG6IP3NVb9sHyOJh25E53dDR9vSZFCAZJxX+9wXLIdB98ELE6F9A6l/dckb8PBnMPtXmD4UTu0pFXfDYoPtgR/XwqNz4IkvYON2GNgRrhwiex0eu/rxAJsq4IJX4fE5yn+bBfRDSn6sULaWOLpaFlgYATG4gBwk6kq11Mcm4Czc57oKoLPFaboKSGfCVCmetwwOuQ3uPR6O3x/uOxaO3R8ueQ3OewFufh/GdYdhHaF1KRTkyIxW4YM/NsBHi+DVb2D+ctkwP6ozXDyghnAEZMuGKgte+R4uex0WOVdVLA84CWlDkCp0ubBAQ4FQIyCGeJkG9FK0YSNVdn9SH442dH43dJWr0M2RRHB7r90GJz4Ob/SAO4+FQe3hiwvg9R/gwf/C3R/BbbMgyyMPy5Icjl3+eLQOZXDRAJjQEzqUSskSoNp6Z0ulFFS8azZ8tdTxmdZCogrvIXWVEHQKSH2nDRoBMcTDQcjErxp19R6yinEzRkCqYyGNoiLis+GpufDlEvj3ROjWFMZ0geO6wurt8PlvMO8P2LQNPBY0qAf7lkH3ltC2tMabbrG78/mq7XD7bNm0X613/bY3cDzwpNazhEfXHggYATGkkDzgYdRrRG0ApuD+PAid3w1d9Y50sg/QgxhvHn5eA4ffCY+dDMd1kRc1KYBj9pPHbnEIEMqqLf7Nez+F69+F9cl7164Anic1qxCdbZsdrzBtorAMsXI50E3Rhg1cgvQ4dztmBVKdccRZH2zLLhj3OFzxLpQH7qv9/UEg6P81xcMGnwWv/Ag9b4MLX44uHiUlJViWIwFUFiKWZzlhLAF0urCMgBhSwsHI3ofqN/RN4DH14SQFnQKyI/ohriIPGJ/ICyt9cON/4NA74Ys/pAhiyOnRP23usuGJ+XDgDDjuEfg2SjxUkyZNuOmmm1i0aBE9evRIZIihsICrgKZOGYwDnQLieMFI48IyRKMA6fimmsW6BnFdJbPmngq6vhs26Scgo4B2KNxAfL0Mes+E4V1gcl84Ym/I9RdE8fngu5XwzHx48nNYHcP6rFWrVlxwwQVMmjSJggLxqo4ZM4a5cx0r5NwQmIlEZSUTnS6sxCuFhcEIiCEaVyOx/yr4gAuB5erDSRo6vxup7nUSD9nE0Wvc4/FQUlLCunW1+2XZwJvfyyPbAy3rS/mTFZthS4zB3O3atWPatGlMmDCBvLy8am6rsWPHcvnll1NV5UQOPBbitnsOeM0JgzGicxPd8R43xoVliEQ/4HwH7LyM9MxOJ4yACCOQfuMxrT6aNGnCggULGDFiRMQ9iQof/LYRFq6NTTw6duzIY489xg8//MBZZ51Ffn5+Lftt2rTh0EMPjWWYsWIB95FcV5ZOF5YREEPSKEJqXal0arOBlcBfSR/XVQAjIFKA72ricF316dOHFi1a8Morr/Cvf/2LVq1aRX9RGDweD927d+eZZ55hwYIFIVcdNRk/PqGtmkg0Q0LOdSaWBmMExJARXA90UrThQ1YwK9WHk3R0CsgujbadZBIhSpdEon///gB4vV5OOukkvvvuO2bMmEHr1q1jjpLKzc3l6KOP5u2332bOnDmMGzeO3NzcqK+3LIsxY8ZQVORosJEFDAcucNJoBHTugThert4IiCEUQ4DJDth5DnjBATupoK4LSCskEilm8fB4PBx++OG7J3rLsqhfvz4XXXQRP/74I6+//jqTJk2iQ4cOFBUV4fHI9JOVlUXDhg057LDDuPnmm/nhhx94/fXXGTx4MFlZWXGF5xYXF3PcccfF9YfG8qcB1wKHOW04BDpXII63aTab6IaalCB+X9WOfMuRuzadd1Q60fndcGv9rwBe4Hak+2DMtGzZkk6dai9aLcsiPz+f4cOHM3z4cGzbZv369WzYsIGqqipyc3MpKyujsLBw9/GJYlkWEydO5PHHH0/YRhjygCeAPugttqhbQMIFUieEERBDMBbS2Kmdop1K4FxgtfKIUoeu74aF+wXkdOAY4gzbHTZs2O5VRSiCVyaNGjWiUaNGKmMMS9++fenYsSM//eRoqTULaI2IyAj07WPpjMJyXECMC8sQzNHAqQ7YeZzkhj7qQGceSIUm207QHbmJiGtusCyLo48+2qlscCUsy+L000/XYhoYANyAvr4hOlfsOTg8biMghgBlSBVSlWgTG1iMZK2nOzqjbtwqIE2Ap0mg5EXDhg0ZMGCA8yNKAMuyGD9+PPn5WlqcW0hU4Rk6jKPXhZWNERCDJmYiG6cqVAFnAxvVh5NydAmIjTsLSeYhK8cOJDDJjBw5krw8x1tuJ0xZWRnHHHOMLvNZyB5Rfw22dQuIoxgBMQAch3rJBhvJG3lffTgpx4Pe1qZuExALccsMIYG/27IsTjjhBMcHpcqZZ56p03wB8BTQ1mG7Ol1YZgVicJwmiOtK9Vr4FbhMfTgZj42s1NzEOGAqCU4uzZs358gjj3TF/kcAy7Lo27cvnTt31nYKoAUiIk4WKdS5AsnCCIjBYe5BvVRDFRK5k66tWpONm1Yg+yFh2wm77MaNG0dWlvsCOr1eL2edpbUquwX0RlrgpsNc6viHlA5/tEEfJyHuKxVs4E7gE/Xh1AnctAIpQGqUKfXKPu2001y1+ghgWRYnn3wyxcWOtwKvdhokY/8UnSdxCC9mBWJwiObIxK96Qf0EXKk+nDqFWwTkdmB/FK6BXr16hUwedAslJSXx7s8k4j7yIN+lLgm8Npk4HhhiBKRuYgEPAKqZXBXARNKvv0UqsXFHYckxyJ2z0g3EGWfoimZ1jsmTJ0dMcAzCBn5BBD4eIbGQfuNPoqHnhoN4cHjONwJSN5mIJA2qYCMJZ1+oD6fOkWoBaQXcj6J4NGjQgBNOOMGV7qsAlmXRtWvX3UUeY2AmcCnxf0YWcCBwI3oj+FQxAmJQoh2y6adykdvAN8B1joyo7pFKAfEiHSbjqnMVipNOOml3/So34/F4mDw5ptqggVI+c4HLSUxEJgPD4nxdMnHUjWUEpG7hRXoblCja2Ym4P9Klr4XbSKWAnAMMJPQNxC5gcyxGLMvSnWfhGJZlMWLECNq1i6nEWxHSAO3/gFuIf08kC4lqaxzn65KFWYEYEmYKcKSiDRvpFfKV+nDqLKkSkH2RVWMo8bCBu4ANsRjq168fXbp0cbX7Kpjc3Nx4QnpLkVpuTwLPEr+ItEJ9la8LE4VlSIiOyMSvegHNAW5TH06dRWeiWCSygHsJXefKRqLp5hNjOZuzzz471o1pV2BZFqeeeioNGjSI9SVNEfG4CFhA/JvqJyGNqNyGERBD3GQjZUbqK9rZCpxJejREcjOpEJDTgSOoPYEEosL+BsR0i96iRQtGjRqVNquPAGVlZZx88smxHm4hIc7XAn8BNsV5Oi9wB+rfOVdjBKRucD7QT9GGDVwDfK8+HEOSaYW4rsJ9399Cbgr6EcMd6sSJE3VVutXOOeecE0/RRwuJWNwbWYnE63psh2zGZyxGQDKfrsB01JeuHyM+coMBeTBrAAAgAElEQVQ6yVyBWMCthM/52Ykkgv6NGK6R/Pz8tMj9CIVlWXTs2JGRI0fG8zIPct2/BrxB/K6svwLuzbRUxAhIZpOLuK5Uk5s2IWXa3d5Jz1CbIUi5mnAb5w8hRQH7hjmmGiNGjKBVq1Zp574KZurUqfHs31jICu5SpEVzTEEGQeQh0VwZiRGQzOZioJeiDRu4CtlkNaQX+cjkFS72f4P/91cSg3hYlsW5557r3OhSgGVZHHLIIfTrF5dH10IiGPsB2+I9JbKZ7o5uWw6vfo2AZC7dEf+r6q3iB0jZE0P6MQlxYYZbfdwOHIRUlI16nXTv3p3evXun9eoDJLHwvPPOi/dlBcBjQMsEThnot+KG+dYIiCEq+YjrqkDRzgYks9atLVh1kYooKadpRPj+LDawBinlfwUx3mScffbZeL06O/0mB8uyOOqoo9hnn33iehmJNxqzgJ5AXJsvmnA0B8kISGZyOdBN0YaNTECL1IeTdugWkGTcwl+I5DKEO9cdyKTWK5bxNGvWjLFjx6b96iNAXl5esjPpLUSso825FnqvDyMghoj0AaahfhG+AzyqPhxDCHTPwq0Qn32482xA3JIXxzqWiRMnUlQUKgcxPbEsi/Hjx1O/ftLSNCzkpm5osk4YBiMghrAUIlE1uYp21iCuK7f0rUgFOsuN6BaQiwifwBbIOu9C+JpY1cjLy0vb0N1IlJWVMW7cuGSe0kJWhtGO0YXjrQSMgGQW1yEtSlXwIeGKS9WHk9boEhDdLopWSPJbuHME2rB+GOs4jjrqKNq0aZMx7qsAlmUxadKkZLbjtYD+RHYv67w+fJhNdEMYjgDiDi0JwctIm9O6js7Vl87v3V+JnvdjIbWxYpqoYiyFnpZ069aNXr1UI93jwouUAwqHTgFx/Jo2ApIZFCM+bdVbqT8REcqEKCRV0lFAyoBTcXAC6tSpE/369cu41UcAy7I4++yzk3pKpBtkuJYKOt/oeDstRsUISGZwI9BB0UYVIh5/qg8nI0hHAZkINHTS4KmnnkpOTo6TJl2FZVmMHDmSJk2aJPO0DYHRYX6XaKhwLFQ6bdAISPozhBirqEbABp4DXlQfTsbg+JfNTyCfwGnycKDHeTCFhYWcdNJJGbv6CFCvXr14qvQ6Rbjde90uLLMCMeymBHFdqWZ3/QFMVR9ORqFLQMDhtqJ+hgDtnTQ4aNAgWrRo4aRJV2JZFhMmTEj2ZnofoHmI3+lcgVRgBMQQxD+ANoo2fEjOwFrl0WQW6SQgFtLvw1EmTJjgtEnX0rVrVw4++OBknjIfGBzieQ/65mXjwjLsZgSyYarKE0iZakN1dJVvsXBeQFoTY05HrDRp0oQBAwZkvPsqmFNPPTXZpwyVVOjFrEAMmikF7kf98/ud6IlNdRWdpeud9pWMQfZAHGPEiBHUq6faBSB9sCyL0aNHJ/NvtpDqvjWTfnWuQMoxAmJAGtyoOqerkHj0jerDyUjSZQXiIXy/j4Q59thjnTSXFpSWljJkyJBknrIxsG+N58wKxKCVEwgfwREPDwP/ccBOpqKz77uTK5DWSOl+xygtLaVv3751yn0V4Pjjj0/m6bxIQcuaz+lcgTiKEZD0ohlwN+qf269IhzVDeHQJiAVkO2hvKA67xPr371+n3FcBLMtiyJAhFBcXJ/O0Ncua6BSQXZgVSJ3FQvY9yhTtVCCuq83KI8psdK5AnBSQUJE8SgwcONBpk2lD/fr1k+3G6lLjZ90C4ihGQNKH8UjklQo2sn/yf+rDyXjSQUDygENx0Gfu8XjqrPsqwOjR4ZLEHccC2lF9TywLffPyTqcNGgFJD1oBM1H/vP4HTFcfTp1gh0bbquX2A3RAfUVajdLSUjp0UK2Kk75YlsXQoUMpKFBt5hkzxVSvi5WNvk10x69pIyDux4Nkm6vWOCoHzgC2K4+obuD43ZofC3CquNQhDtnZzQEHHJDRta9iobi4mMGDHfcMhiMfaBD0s1M3F6Fw/LtvBMT9TEK9i5kNzADmqA+nzqBLaG2cmyQOdMjObvbff3+nTaYdtm3HFETQb798J07npfrNoU4BMSuQOkZ74GbUlrQ2sAC4wZER1R3SwYW1Hw67Ozp16uSkubTD5/NxxRVX8NRTT0U8rmmJl67tHZvrC4P+r1NAtjlt0AiIe8kCHqT68jYRdiKrGJ0TYibi+JctCCeyxrOAtg7YqUanTp3q7Aa6z+fjmmuu4ZZbbol67J8bqrjvDcdycIN9ho5WFKiBcWHVIaYARyrasIGbgK/Vh1Pn0LlX5ITvIwdwtIlFXl4e7dq1c9Jk2mDbNjNnzuS6667DtpPeTy34hDoFZKvTBpNWv9gQF52Q/uaqt4JfInsfhvjRtQKxcGaSKMVhd0eLFi2S3Vgp5QTE4rHHHuPSSy9NhXhA9ZBxRzZWwmBcWHWAHCTqqr6ina1Ioyld0USZjuN3a0E4MUk4ni5dV/M/3nrrLaZMmYLP50vVELYE/V+ngGyJfkh8GAFxH1ORKp0q2MgK5hv14dRZHP+yBeFEkoGT2ewADBs2zGmTrsa2bebNm8cpp5zCrl0680YjUgGsC/rZCIghYQ5CEv1UbwM/Be5QH06dxu0C4qivpVmzZgwbNqzOrEBs22bFihWMHTuWjRtTWpB6O7Ah6OfCcAc6gBGQDCYfqZCrWsVuI1LrSmc/i7rAZhyepINwYpKocsAGINnX06dPp6ioyCmTrmfnzp2cfPLJ/Pbbb6kchg2spPrErktAbDTUvzMC4h4up3Zlznix/XZ+Uh9OnUfnCsSJScKxDVGPx4PH40nVBnJSsW0b27aZPn06s2fPTvVwQMoLBb/xOlcgm5w2aATEHfQCLkY9YfA9ZBVjUMftK5CNSD97Zaqqqjj77LM57bTT2Lx5c8YLyXvvvccdd7jGw/tVjZ+NgBjiohBJGFQN7dwATAYqlUdkAL0C4kSzjW04uEqybZsnnniC/v3789NPP2WsiGzYsIFzzjmHykpXfE1s4LMaz+lsxGIEJAO5GlAtQOQDpgFLlEdjCLAZh+7wQ6C62WAhCaKOh/IuWLCAPn368OKLL2aciNi2zbXXXsvixYtTPZQA64D5NZ7TtRG1HdMPJOPoh4TtqvIW8LgDdgx7qEJf0y3VHJ9pyHVTzeVZXAD7t4b9Wsr/E2XDhg2ceOKJTJs2jfLyzIjFsG2bhQsX8uCDD6Z6KAFsYDa18410CcgWHAy8CGAEJHXUQ/YrVGtnr0VcVynLgspgNkQ/JCFUBGQQUhiz2nd37BGw9AVY8E/47glY+zp89QCM6pvYSaqqqrjtttsYNGgQf/zxR0asRmbMmMHOna7Kq20LHFHjOdWbi3BsQoN72whI6rgR2FfRhg+5E/1DfTiGEKyLfkhCFJFYwEQL4ElqlCAaczg8dSnUzwarCjxVkOWD7u3g1avhhkngSTA84+OPP6Znz5589NFHaS0iq1ev5vnnn494zO3nQlny2qFbSNTl+8Aj7Nk81zUCx4IugjECkhoGIMUSVbCBV4Bn1IdjCMN6TXaziT+ZMBt4ghoFFPt1hSenQU64b7INlx8Pl56YwCj9rFy5kiFDhnDrrbdSWVmZdkJi2zavvfYaW7eGr05zWFc4dyScPCiJAxMR8QKnAW8inQl1baJruRkyApJ8ihHXlTfagVFYjboIGSKzVpNdL/H7uqcj1Zl3ryX23QtevAbyoxU1seGaCTCoe5xnDKKiooLLLruMCRMmsG3btrQTkVmzZkX8/fnHQ5YN5x8HhQ7Xw7WAvGwoyIX8HMiqPetaQH/gfvT1AzECkiHMQL2Pgw2cg4iIQR9rNNmNV0BOBS4jSDwaN4DXb4DGMWYNZFvw0MVQonh/+8wzzzB06FDWrFmTNiJSVVXFt99+G/b3JYUw8CDAgtalcNHxzp17yMHw4R2w7HlY9wqsfgl+eALungoNqn92FjAG9f4/4dByLRsBSS4jgNMdsPNv4CUH7Bgio0tAPMTm685HhOMBgvY96uXDKzdAhybEtZPSpiHcOCm+gYbis88+Y8CAAWmzub5169aIJUu6dYSioPv+S8dBV8W2KFleuHoCvHUdHN4JGhVCXhbUy5XP7dyj4IVraq1GPDjcYTIIIyBpTikyEai+58twJvTXEB1dKzyL6n2wa1KGRNZ9hQRb7J7e8rLhhb/DofsQ/1RjwRnD4NDOcb4uBN9//z0DBw5kxYoVrheR3377LWK13QP3ptr2coEXnr0KShOMh9p3L3j7Frj6ZPBahP6cLBiwvwRAVH9Wm4BouZaNgCSPu4DmijaqgLPR55s3VGeVRts1BSQfGAY8BSwE7kUai+2eUOrlw8vXwdCDEj9plg13nCt3yKosXLiQoUOHsm6drmA1dWzb5pdffol4TNfWNZ6wYL/m8MbN0CySzNegRSO4dTJ8dT8M6hpdCSwbph4LSSqArOVaNgKSHMYA4xyw80/gbQfsGGJjFfrKmTTy/1uM1EH7HkkIPQmJxql2N7p3c5g1E4apltu0oGd7mDBU0Y6f77//njFjxrgtv6IaP//8c9jfWUCb5tSe7S3o3R6+fhDOHS17TqFeW1YfRhwKT18JPz4O00ZDvZwQ9sKcvMc+0KVNjH+IGn/qMGpa2uqnKXA36mK9GLhEfTiGOFiJODccuF+vRRlwGBKRF9YhVZgHZ4+CK0+CBg5GB10/EV74P9jsQOf32bNnc+GFF3Lvvfe6sp/IkiVLwv7OBto1DvNLC5rVh7snw42nw8/L4dcVsKscigphn2bQpqnsa+AjIedTFjD6MPhOb1X5QNl4xzErEL1YwD2IiKhQibSnTWnnmzrIKjSUf/AzCllNhhSPRsVwwVj4/p/wj9OhQX6ooxKnaRFccpJz9h588EGeffZZV+6HLFq0KOzvivIhYhsU/3telCOJmSf0gfFHwOhDoEsr/2rDRumzGdVbuxtrO5rK8hgB0cvJwGgH7DwAfOCAHUN8VKJvI31/JPu42tTRuQ3cez788iTMnARtSjWd3YLzR0PrJtEPjQWfz8fUqVNZtUrntlH8VFVVsWLFirC/L60HhfEUE3J6m9sSF1Ybhz6HMKxFQyFFMAKik72Amai/xwuBK9SHY0iQ5ZrsVpuGOraS6Kp5D8CUYf4VR62jnKUwy5mw3gBr1qzhqquucs0qxLZtysvLWb48/EdYv37IxL6kkuOBIYdoPcVqpPe64xgB0YMHiaIpU7RTjriudFWFNURHl4DsZvwQmHsfjOntL0mSrG0EC044DPp2cc7kk08+ycKFC50zqMi6devYvj38Rk+LRsl7u8Niw3EJFr2MEW218oyA6GEiMFzRho1svrui72YdZplO4we2h4cuiCNyx2G8NtxxHmQ7FCZQXl7OPffc45pVSKT9D4DmJeiLs4sVC/p0hr1UbzfDs1SXYSMgztMWuBX19/YHpNmUIbX8rtP4cf0hN5W3wBZ0awtnjXTO5AsvvMCOHTucM6hApAgsgKaNSb2AAPlZcOJAbeaNgKQJWciGdxzpRyHZBZyJtC01pBatAtJc311nzFg2XHuqc3fAa9asYd68ec4YUyRaEmF7vZvXsWPDmcMhT7U7UGi0XcNGQJxlCtLwRwUb+AfwufpwDA6gLULfwu86SrUT3oKSPLjrr86Ys22bBQsWuMKN9euvv4b9nQW0bkbq338AC9o3hhOP1GJ9iRarGAFxko7A9ahfjguQjnMGd/AbmpwcNrBthy7rcWLByENq1WZKGDeE89q2HTkL3ZJkQDcxfbzkpjhIJcaF5XpygIdQ72e8HXFducOBbACJgNNWe2yzi5yUHhvumCJJjKpkZaW+yEV5eXlEAWlcDKW6iqcnSJtG8PeJjppcg8YoTiMgzjAVUA3Es5GVx1fqwzE4THg/iCK/u6kspgUtGsBtU9SX0a1atXJkSIli2zaLFy+OGMLbqhkUpF7nanHeSBh6sGPm/gC0FSozAqLO/ki3ONXv3OfAberDMWgg/G2sIitX4bpv4clHwDH9En99Tk4O/fv3T3ldrEhNpAAOaI873Ic1yPbAIxdLjooDRI4iUMRll27akQc8iHof4y1IwqCWcgMGZbQJyNI1uO5b6LXhnvOgeYJlVIYPH07btqpNN9WZO3duxN8f6FIBAWhRDA9cBF71a0PbtQuuu3TTjmlAL0UbNnANUs7b4E5+1GV4xVqwfdGPSyoWNG8A918Q/wTWqFEjZsyYkfLVh23bfPLJJxGP6d4Bd0RghcKCo3tIlQIFbOAnZwYUGiMgidMdaTeqysdIsymDe9EmIDt3wTaXrjtHHAznHhv78Q0bNuTll1+mXTvFfrAOsHTpUr7++uuwvy8ugA4tkzigRLDhuonKUVnarl0wApIo+UjUVYGinU2I60pLoTODYyxGU2RceSVscamAWMCNp0HvGFrger1e3nzzTfr27euK1ceMGTPw+cIv7Tq1gZLC5I0pUVo0kH4hCbINzYmwRkAS4wpAtTecDVyJVNs1uJtyNH1OPhsqdXUccYACLzx1eeiOfMFUVVVxzz33UF5enpyBhcC2baqqqrjrrrt44IEHIh7b/wD0dXpxENuGponXtViG5kKsRkDipxfSglQFG5gF3K8+HEOSiBzSkyDZXijQU77CGSxo1wgemha9j/ozzzzDqFGjWLFiRVKz0G3bxrZt5syZw5AhQzj//PMjrj4AjjgwSYNTwYZfV8Nj7yRs4XukV6I2jIDERwHwCJCraGcTkjCYBvdABj8LdBitX5gGrhQLRvaUDonReO+99+jRowdPP/00lZWV2oQkIBrl5eW8+eabDB48mMMOO4xZs2ZFfW39Aui5L+7dQPfz8U9w5IWwJrE+pDbwjbMjqo0RkPi4FojBIxwRG+ltrrcLssFptFQH7L5venwJLeCa8dCzY/RjV65cyfjx4zniiCOYNWsWVVVVjglJQDiWLVvGjTfeSOfOnRk1ahQffPABlZWVMdno1gEaqgbea8K2YdNOmPYoDLoIlq9RMjffoWGFxYV5mK7lcCTjXJV3kFWMIb34Bgl2yHbS6KAeiJPB5XfDAPleeHQa9JoC26Ns/Nu2zaeffsqQIUPo3r07kyZNYvTo0ZSWSnJJpI1227Z3/z5YeNatW8e7777Lc889x/vvv8+uXYlFHwzsjqz93fSe21K06slZcPVjysIBcq1qcbsGYwQkNoqQSV/1/VqHuK5cmr5kiMAmZCPdsf59Xo/fF++miSwSFnTdSwr+XfZwbC/x+XzMnTuXuXPnMnXqVA4//HAGDRrEQQcdRIsWLSgpKcHr9eLz+dixYwfbt29n27ZtbN26lbVr17J06VIWLVrE3LlzmT9/fsKiEfQncPgBSiacxQafB978Cqb/E75xrmjO78CfjlkLgxGQ2JgBtFe0YQPnobG9pEErNvAlDgpIwyLYp7lT1pLHBcfBcx/B/DiLZOzYsYN33nmHd96RXWGPx1NrJRJwUenaO2lYHw5oR+pF2wbbA5/8D654FD77zvG7yq+RRY1W0sH9mmoGI6sGFWzgJeDf6sMxpJD/OmmsUyvnWskmkxwL7jpPvcyGz+ejqqqq2sPn82mN4OreAerlaTMfHVsmg++Ww9FXQf/z4VPnxQOS1E/ICEhkGgAPo36/sgo4R304hhTzKQ5+11s2RXOQpSYs6NsJxvZP9UDi59CupCz20bZhzTaYfDd0OxPenqPvVMBn2qwHYQQkMrcDqnWpfcC5wGr14RhSzGJguVPGSopJ390wG66e4Eixv6TSs0NqzusDnpoNnSfCg29oTx5dg+YaWAHS7ONPKiOB8Yo2bOAZ4GX14RhcQAUO3tlt3ETqffEKdGwBo/qkehSxk5MFnduQ1PfctmHNVhh7PYy/EdZsSsppv0LKmGjHCEhoyoD7UH9/lgMXkL73mYbafOCUoQ+/hrXbSN+rw4a/DEr1IGKnpAhaJF4WJD78n+kXv0LPyfDyx+GO0EL0bEqHMAJSGwu4E2ihaKcK2fdwU885gzof4FB0y8r1cPgF8PIXsLUcufJs0kpQjnRTSGwUWjeBpHTatcG2xGU14EL4fVXwb7CR1YGuCCkfSRQQE8Zbm7HA8Q7YeRx40wE7BnexDPgOOMgJYz8sgeOmQ1kxHLyfZKZ3bgWd9oJmZVBSAF6L6pvtLnJ7pdMeSIuGJCVoocqCm56Dvz8GVdXPZwPvAe+jr/vo72gu4R6MEZDqNAfuAFSDKxcj5UrS6F7SECM+4G0cEpAAazbBW5/LI0BhrlRi7dga9m4JnVvDfq2hXTMRnKxgYUmRqMxJylatM2Rno/0bWeGDCx6E+16pdqrAquMy4AlkH03XJ/YfpHp0UjACsgcP0tipmaKdCmAKsF55RAa38ipwOZqn7W27YNFKeQSwgJxsaFoCXdvBAftAjw5w0N6wVyPwBJwkSRAU24ZX1TNj4p3SE/7Ltu5AvuWaViE7KmHSbfB0dQeSjSQPjwG+AG4G9tczAmzgNU22Q2IEZA8TgNGKNmwkb+Q99eEYXMw3SK/pfZN9YhvYVQG/r5bHm/5cgpwsaNccBnSHo3tBvy5QGLjj1iQmWyrg2eghBYERBAvFLmAl8CuwCHG7/IGU+tnKngZrWUB9oCXQGtgbaIvsT5YSvi5Z4C+u9td/v0RWCI4WM/OfZcNOOPkmeGdOzd/wMzAc+Tsno94KIhJrgMh9fB3GCIjQBrgV9aCCn5BmU4bMpgKpLHC55vOEujsPKQfllfDTUnnc+wo0awhj+sPEYXBgW7A0FGyc+SKs2xJxvDayEv8VKez3DbJ/9DOwgcRcLRbSEbQY2Av57rZEIicbAvXYoxFFwBD/a1i+Bj77Hg7vjHPvhQ1LN8BxV8NXC2v+hsXAUGTfbDpwFeru8Ui8hQhw0jACIh/ofUAjRTvlwNlAYtX7DenGM8g+l87vkIXcrb+MdJYLTJjNkTtzK+i4aqxcD3e/Ave/Li1pp4yCkYdCgSfU0fFhAx99Dzc9VevpJcA9/rEuQ+66VwLbcW73wfbb2+63/WWEY+sjq5sGIN0fr/sX9L3ZuQ/ti0Vw/N9hae004dXAMcj88hZSEkmnYzGQc5ZUjIDAJOQuQZW7gNrR3oZM5Uek3lA/zefJRSaiR5FrdRVyB94MKezYDTgE6IF/oiRooqqsgk++lUfzUjhxIPxlIBzQFqxESppb8MrnMPFmWfUEYSN32E/H/RfqYzPwHFLLzgL4v/nw0Dsw5Sg1wzbw+Cw4707YtrPWrzcgn9U44K/ISkg3i0jB/GPZM2vfGazdxtqyqyhTsJuPLF11lS2rRHyhqmUl9gbmsueLlwg20jqyN0nK/jS4hr8A/0ri+bb6z3cv8EPQ8xZQiFyDxyEbtg0JIw9ej2Rkjz0SRvWCLm3BChaDwI6F/18bsLwwbxHc+iy8ODtkeOrrwLG4r7pXe8R1trvvY0Eu/Ocf0KcDcQuobcOWcrj4QXjkLfm5BlVIJvg+QEn8Z0gIG3GRXa/rBCuvYWXTIprWfL4uC0gW8C4wQHEsu5BmU/pKoxncSiGyEtkryeetQq63p5CIsJp9H4qBU5AGaO2JMIl5LGhVBn0OhP1aQasm0LhIqgRvK4ff18DCZfDhV/DjUnED1cBG9jWOwL2Rh9cgq6Pd70NZA3jrFujZhuhTvP9vtj3wf9/BlNvlPQl/ZNKDqrchAR3aWkUYAanNVKRYosqHbQM3Alcq2DCkN39DroFUYCPfhS+Qm6H/IK13A6X6coETgGnsacUc8XqvGS4Vw/m/QFxsq6Icm0rygQ8RV9/uv7+4AO67CE7s73fnhcD2wuYd8MYc+Ofb8NGCkKuOVPNP4HSdJzACUp1OyIWv4pu0kZ7DfYDaXlBDXaEh4k6q9eVKEZuQvZnPkQ3meYhP/kgkjHQokOM/NtGbJxsJGrkbubNPh+t/L6TEx97U+Lu7dYDBPaB1M6ifB7sqYdUGKUEy7yf4+pdaLjs3UQ4ciObs83ACUhc30bOBh1Df2NqJbJSlw5fHoI/1SFmKW3FHkZFiRCQCgSGBRLYfgP8hq6WuyE3U3uwRk2Bq/h3BN5lbkaiwW/320oVlSCTUa8jfv/tvnPezPIL/aPctMsLyb5JYuqQmdVFALgT6KtqwgZuQuzuD4X7kZiJF3SYiYiF5Ei2RnIhgdiKb3jXzn2z/8+VIct8SJI/jE8RN5ta9jmAsJIQ2CxHJUqAxMBPJBm9CDaFMI9EIsBX4eyoHUNcEZH9kya3Kl8AtDtgxZAbbkH2Gl9GbKOY0kVzMXsQV3RxZrbcC+gPnIeGxgcc2ZCLbDuzwP3YiwSW7kKTLCsTtXInsz/j8j+Daw5b/4fGf24PMT1mI1yDH/8j1jzvf/yhAkgcLkbyPImQVVt//KPY/l0ZlH2PCRuagJakcRF0SkDykzEhhtAOjsA2520xawTJDWvAGksh1SqoH4jAeZBIuTvVADLuxga+Bf6R6IJmmypG4HDhY0YYNXIuELRoMwdjA+cDCaAcaDIpsAU7FBfuvdUVADkbKTqgQaFQ/U304hgxlPZJ9nA57BIb0pBI4g+qJpCmjLghIAfAI4jtVYQvywenqJGbIDBYgIpLUonaGOoEPqeb7QqoHEqAuCMjVSNieCjbiAjPuCUMsvI+UE9mU6oEYMoZKRDzuTPVAgsl0AekDXOCAnQ+QUE2DIVbeQ/IOQhe9MBhiZyswEamc4SoyWUAKkQqmqv1jNiFRV+7NRTW4lS+RAofvk5ZpBgYX8AtSr++paAemgkwWkBtR7xhnAxchPQUMhkT4AzgKuBRTrdkQO1VIjatDiNzzJKVkqoAcifQlV+Vt4DEH7BjqNpXADKA78A5mNWIIT6A9xHAkaGdDaocTmUwUkPpIrSvVJMl1SIdB47oyOMVC4GhgJBKtZTAEsxJpQNUT2UNz/Y1GJgrIrUA7RRuBpDDVhlUGQ018wJvIJHECUtHZULf5A4mw6oi0BE55gmCsZJqADEOWfapVUV/BXSVY+5EAABTVSURBVK05DZlHJfA80op2AFIltiKlIzIkExvpXDgBqYp8G1JbLK3IpFpYDZFQW9VidquAc0mD5aMhI/AhzY4+BFogJSpORu5G3VAe3uAcNrAauXF4nAyo5p1JAjITaK1ow4f4IFeqD8dgiJs/gBuQCMLuSH/z0cgdajpV+TXsISAabwIvIjcKGVOINVMEZAzwFwfsPIuLygQY6iwB98ZXSMvcTkiDqMHAoUh5crM6cSc2Usb+OyT/522k+2lGlkDKBAFpiqT3q96hLUWy1o3ryuA2fvQ/bkcSZHsA/fyPbkAJZoWSCgJzxVakuOF/gdnAHGTVkfGku4B4gLuQpjcqVAHnUEc+dENasw2ZpGb7f85BEmYPQsTkIGT/pAT5fpuVijo28j76kI3uxcA3SE+OeUjexpaUjS6F6BIQG9mMVq2AG44q/+NExE+symPAWw7YMRiSTTniLvkOeNL/XDawF9JitxMiKHsD7ZFgk0IyLwLTCQIrip1ICaPfkVIiC5EV4E9IB0BTUcCPLgHZCbTRZDvAXkjom+oXYRFSZsK4rgyZQgVyl7wYeDfoeQtZmTRGWtS2Rr5HLZEIsKZAI0Rg8hEhsthzB55uBI/bRm46A2131wN/AiuQfK/liBt7CXLzu5YM3bdwknR1YXmBu4EminYqENeVaQBkqAvYyLW+HrmbDoUX2aSvBzRABKWh/1HCnva29YOOK2SP6OSxp5e5N+jh8T+soH+h+gQf+NdmT9/0wCPQT73K//9yRAi2sacv+1Zk5bDZ/+8G/2M9Igjrg47bFeN7ZohAugrIBGCEog0bKXnynvpwDIaMoQrY6H8kUonBIrKABMSjpoDAHvEICEjg3yqqi0clpsSQK0hHAWmLlCtRdV39DFyhPhyDwRCEjazsTVZ9HSDdNtKygPuAUkU75cBkTMc4g8FgSJh0E5BJwBBFGzZSsOz/1IdjMBgMdZd0EpB9kBIPqtEg/0P6pBsMBoNBgXQRkGzgQSQqRIVy4EwkCsNgMBgMCqSLgEwFDle0YSMFF/+rPBqDwWAwpIWAdAb+jrrragFwjfJoDAaDwQC4X0BygEeRJCUVdgKnkUadvgwGg8HtuF1ALgEOUbRhIz0WTA9qg8FgcJCQiYQWWIU5ynf9SpRX0bmiSj3RL8fLN9le7kV9FWMwGAx1EivMFoJlz3RfEcGdFdD7TliwQs1OfjZ8eT50aebMuAwGg8GwB1e6sK5/X108AK4ZasTDYDAYdOGqWli2DV8uhVs+VLfVpy1ccJi6HYPBYDCExlUrkB0VcPpzUKlYZ7NeDjxyAmSZJp8Gg8GgDVcJyPR34Yc/1e3ccBTsW6Zux2AwGAzhcY2AfLwI7vpY3c6R+8DkPmClY/80g8FgSCNcISCbdsCZz0OFouuqOA8eHAvZxnVlMBgM2kn5Jrptw2VvwcI16rZuORraq3YKMRgMhmThzYW8hpBTXx7ZhZBVAJ4s8PjvhH1VYFdC5S6o2AoV26B8M5Rvgl1bSGVzRj0Ccsxb0KR75GNeGgxrv+W9n+DhOeqnHNYRTj/lOKyB90Y+8KdnYfb56idMBZ4cOP23PReW09g2+Mqhcifs3ADbV8Pm32Dd/2DVXFj7HfgyrNFcSQc4PorvdO0P8NKA5IxHB0OfgtYDE3vtiv/CG2NwbJIa/gK07Bf5mNeOgT8dmBTcRk4xND8UmvWGsgOgZF8oaAxZ+eDNAStGh5Bty/ewyi8om3+HDT/D6vnw5xewep78LgnoEZC8EihoEv73tg2eLNZvh8kvQZXitdmoEO4bA1nZeZHPC6Ly6YplyQXnScHC0fbB1hXwy0vwzX2w8efkj0EHVlb0ayZvZXLGoovcBtH/xnC0GwktD4PlHzkzlmhzA4A325lzuYXSLtDjEmg/UuYf1Q1ayxLB8eZAThEUNoNmvWC/8fI93b4Gfn0JFtwL6//nzN8QhpTtgdjAxa/DkvXqtmaOgjYN1e0YImB5oKgldJsKpyyAPjfJisiQ2Xi80Gt67HfHhj1YWdD7Wjj5K9jvFMgt1h/dY3mgsAkcMEXOe/AV6JzmU3JV2MDr38MTc9VtHbc/nNRN3Y4hDrLyoeelMPxZ8GTY3aKhNi37w15p7MJLBZ5sGPY0HHKl7HOkgqx8OPQ6OPgybadIiYBYlsWM/wOfYhWuJkVw12jwmpuj5GNZ0P4Y6Knv4jS4BMsDva6WO2pDbPS/DTqMTX0+gWXJZ1faRYv51KxAbJsdinuxFiIezYsdGZIhESxLBKSweapHYtBN80Oh3fBUjyI9aDcS9p+SevEI4M2Bg/+mxXTa3ruP6wZjDkj1KAxkF0DXM1M9CoNuLEv2QozLMjLePOh3a+KRkrYd+ueaz8dLu5GQW6JmIwRpuSZtUQy3jwKPSwTeVVTukggMX2V8r7M8En+e2wAadoCCprFHe3UYC3P+HvdQDS7B9kH5VsiNEqHYuBvsPRp+fj4540pH9hkjoeGxEAjH3bIU1v0Am5fAtlWS31G5w/8dtsHyijBlF0oUW2EzaLA3NOoqohDLSienHrToA4vfVPnrapF2AuKx4J5jZf/DEIKKLfDBmZJspEJJRzjor7K6iHY31bCThGZuX6V2TkNqqNwJ/70Kjrgz+rGHXAm/vir5QobadDk9tgl9yzKYNxN+eQW2/J7Yuby50HowHHEX1G8T/fhmhzouIGnnwhrfA0bp2Q8yBLPhJ/hwCnx9W/RjLQvKDtQ/JoMeLA8sehW2xZDv0qgr7Hu8/jGlI/mNoGnP6Mf9ORee7g7z7khcPECSBRe/AW+OjS1xsHS/xM8VhrQSkDYlMGOke/am6gQL7pHldDRK9tE/FoMeLI+4S757OLbjD74idaGpbqa0i7iBI+GrgA/Ogh0O1G4KsOorWDor+nFFrQnTmTZh0kZAvB64d4xknRuSyNblsOGX6McVNNU/FoMeLA9k5cF3D8Xm+mzYETr+Rf+40o3SztHvbld8DmvmO3/uJe9GPya/1PGE0JTlgcTLGYdIvStDsrHFnRWN3Ab6h2LQg2XJimLrH7Dwudhec8jlsrFr2EODvaMfs+QdPede8030Y3KKMkNA7DhD0jqUwU1HG9dVytgWQ5cv49JIYzx7Pr/5d8UWwVfcDjpP1DusdKNor8i/t21Y9bWec29dVj3U17Zr/+zJwWkXluujsLI98MBYKMlP9UjqMOVboh9jaiWlL5a1J79j7bfw+/vQdlj01x38N/jfE1C5Xe/40oXCZpF/b/ukurUOtiyHFw6PcpDteDVt1wvIuf3g8PapHkUdJ5aLLt68E4O7sAKh2jbMvwPaDI2+5C/aS8K859+hfXhpQX6UPtp2lbRI0IGvAv5woKVrnDh+26iYL1mN/ZrAtTFcxwbNWDFk1VYq5p0YUktwrs+yD2HNgthe1/NSSXCr61ie6ImYdpUkbGYQjgtIZRWsc2AuyfbAwydAPeNaTz05MWRt7tqkfxwGfQS7IH2VMD+GpEKAwqZwwDl6xpROZBWAJ8pkVVVBKrsH6sBRAbFtuH02/LJW3dZFR0Dv1up2DA4QzbcL+pbmhuRQc5X58wuwaUlsr+1xsXTbq8tk5YE3yo5ApnXzxGEB+eFPuPpd9bpfXZvB1YON68o1lHaKfszmJdqHYdBITQGp3A4L7o7ttXmNpOxNXcaTE0O5+8xafYCDAlJRBaf+G3bGsJcaKQ8k2wOPnwh5puinOyhqBQ2iFIezbSkGZ0hfQkXR/fBobCHclgXdzoe8UufHlS54c6MXH7WNgITEtuGmWfD18liPD79EuWIQdGvpxKgMjtB1kizPI7H1D6koasgsdm2CebfH5lLIawg9pukfk1vxZEUPNlF1zbgQ5TBe24b5f8AN76sPpntL+JvpnOkOLK9UFu1+ceTjbBsWvZacMRmSz7cPwIHnRk+SA+nDPf+O2FYtmYYnO7rPPd4VyLBnoIGDOQx2FTzf39G9GGUB2VkJpz0L5VVqdvKy4J/jIMf1mSkux/JKaeeKOJO7svIgu564rP6/vXMPjqo6A/jv7mZDXjxCaAgiJeEhVpGCgLbUR6tWEPocrDKdjk6tDtDa0jI+htoO0tpW26kdHUccHa21pS2tDxqs0EIREAwgKpgMhQIJlACxhIQkJOyG3T3940sGAd1zdvfefeX8Zu5MMvn2nJNk93znfM/yidKu1qS2T7Tb3FZuyT6622H7L+Gzj+vfC/n9Ycr9sOEHqVlbJuHPd3/MIeOl+rFbKOV6wm9S27VS8OBq2Hkk+YUsni7Oc0uSFJTCbXWpmUtFYOO90LonNfNZ0kPdczBpgVmtp8vuhLcfldIafQmTXCkTGS9xHNfXkLA6Ugo2N0jYbrJcPQoWXmujrrIGpaR51Orb7e2jLxDugm2/MLPhB0r6pi/E5GTvy4ByP6ZdRk2HS/SFJ0Nw11/gdJKBBf37wdO3WNNVxtPbfrO5DjYtghfGw+5l6V6VJVXsXgbNtWayl37TzGeSS5gokHTfQMAg1Dg+ElIgSsGPVsFuF3LHfjYTxmlKyFgygD1/gpduhD9Oge2PwCkXskUt2UMkBFt/auYIzi+Byxd+xA9zLxIJMDOfZIIC0bWnjpOE1NG6vfDk5sQn7c0DueEimDfNmq6ygou/DmO/Bm31EnW143EJ37X0HfatkO53FVfoZS+9A7b/CjrPcZBGk4y2yVRMfq94FUjrf8wjtxyfNPryaRLoXDZhxT1aaxfMexHCSZiulFKUFsHSGRDIAKVsMcQfgMHjYPB94ixdOxf2vpjuVVlShQrDliXw5ZV6k02/ATDpu2LuPGuMXFUg3XqZeE//r95sLptXCHc0QPFQzRrSaMJSChb9HfYlab1wgCUzYMyQ5MaxpJGCwXDTMqicme6VWFJJw2o4vMlMdvxd55c4z1UFEuk2CDLweWfGcnxmCsplH0hco63aDc9udWfiaZWA6/X3TGxhOWqD7eX0Sdj8Y7FZx0OgWD7sQyfDsE+Zlej258MNT8HvPmHWS9uSA0Sh5kG4eY1+Mywsg8vmwraHPvDyHFUgpzulirE/hgnJceRz1d3uwQIMlVO68kCaO+E7L5mZrqJRvZDjhSY2uZ6ZXDWzmXAQ6p5JbkPv/3G48gEYf6f+Ddd/hPhGdj2f+HyW7KLxdTi4Fiqn62U/OV/8Zb2bZg7WgwLk8xYJaRSID/qVeqNAfH6zZEaXG78ZqaOognur4UCL2aChkMHpN1BkNlg8BEr0MpEcVyBu0PFfWDsPahabxf6P+ar3a7JkFjWLzW4TxcPgktvOfJ+DJc0BafscPhVbxvFDyXBv5g8Uix9Eh8sHaCMFUl0HL2w3H7SrS1NGw3GgsNx8QFN0DiSA0An3581JFLz1MDRt0YsOner9ciyZRdNWqK/WyzmOZLH7ewpyRoLeritdRLvPjzg7F8eBsku8mX9Apd5aoJQoOhfRKpCmdrj7ZbmFmHLs2DG90OBx5gOaUmow5imDtVmEaBh2PKmXK65wPbrDkgXULDYziQwcDWN7IorCOapAQELcdQy/xpu5yy/Xy3S3x+8b1RBTgUQVLHgFDsfZrbSpyaAa54XXxjeoDl8Ahn1aL9fRx2r0JMvhN3paccbAcWxHur5Icy3sWa6XcxyYvFAOGTozTzZj0ke+aqZZi+h4GfUFvUzX/1yPgoupQP78Lvx1Z/yD7tljUFxv+DVQNj7+wT+Kqll6+6KKQOte9+bsC5w6BqFWvZzfNq/vk9Qs1h8wAD42EUZOz20F0rRd7zMsLIOpi2LLxEvFlTDiOr1c237Xgxg+VIEoBY0n4PuvJBb0WltbG7NpFCARAzN+DwOqEpjhHMonwecMyk2H2syumZYzhIO5a7e2JE/bftj1W72c40hvmVwOYmnaImH0OqbcB1c9DP0GJTmhAxd8BmYtNzMhN7+X5Hzn86GzRpX4PY4lGAm6a9cuWlpaKCvTtLgsnyilxw+sgkOvy5W4/SAEj/fYVtUZje44PckyAclXGFgFQybAyM/DiOtjh8/10rTNboZxE83d0EuLO2x9CC7+hj6y8sKrJUM9Vwm2wJE39eHNPj9MvR8mzIUD/xAz8fE62ftONZ+99zkAPXtfXpFEtQ0aDeWTZe+ruMIst0Mp8wTQODhPgSglEVd/S6KlRDAYZM2aNcyZM0cvHCiCsbPl6SUakRLSkZB87SAZlHkFEqqWSDKMUrD35fhfZ7FYYtNxCGqflr7osXD8Zs7ebKbuWRh5o1mBv36DYNyt8vQSjUC4U25q0YiM48uTfc9fkHjhwO4OUVQuc95OfLAV7jGIztOxYvnzifcA9vnF0VQ4REJzi4aK7TBQnHgmZfA47LMKxGLxhLcesSHyAPUroXV34q/3+SF/wAf2vnIpG5RXmFzV2fpqT/4/Z+3GUQUPvCb7fmlh4k9ZEdw+dC0cSaJkr5soBe/8RpSIxWJxn64mePexdK8i/USCsPGezEqYjISkLbEHnGXCcoBnbnFn4MJABP41H259wwVnURIoBUffhLd/nb41WCx9gXcegwnz5dTcl2l4DWqWwLSfuF57Km6UktuhaTOwODnrt3McKMp353EcxDG0cjZ0GuSFeIFScHgjVH/F9QQai8VyDqFWe1DrZdvPYd3dHhVONCQagR1PSJCDR3ivHg+tg2WTYedSCaNNBUpB2wFY/z3pome751ksqWHnUuhoTPcqMgAF7y2FP0yCuudSq0iiYWjcCNVfgvULPDWnpab+ROcRWPdtSTqqnAGVN0HFVKn66gu405IwHJSY9MObYP8KaNyQ20lLFksmcrpDaqhd90S6V5IZtNXDmm/B5h9KFnrVTKkdVzLcvfI/0TB0HhUzVeN6MaEd/zfgffi9ox5NU4MMXx4UlEk+x8DRUk+pqEL8Jfn9pbKuL08exyd/pGhYlEJ3m9xmOo/CyUY4sV+UR7Alt3MWHB+MmR1b4UZCUP+quyULqmbp+4Psr87OHJv8AXKoiUXoBBz8Z2rW4wXDr4LiC2LLNG6Arvfdmc9fAKO+mPjB8NC63LYa+PIlsrT0IhhYKQfpgjKJtsovkZ/3HqyjYfksR0KSpNh9Ut6PXe/L034A2hpk70uDmT59CsRisVgsWU2aQwQsFovFkq1YBWKxWCyWhLAKxGKxWCwJ8X8pcRTrAmL/AQAAAABJRU5ErkJggg==;" vertex="1" parent="1">
          <mxGeometry x="680" y="219.65" width="160" height="120.8" as="geometry" />
        </mxCell>
        <mxCell id="EHzQNXyAd45b1-Ulsyj4-9" value="G" style="ellipse;whiteSpace=wrap;html=1;aspect=fixed;" vertex="1" parent="1">
          <mxGeometry x="950" y="240" width="80" height="80" as="geometry" />
        </mxCell>
        <mxCell id="EHzQNXyAd45b1-Ulsyj4-11" value="Эй, я прочитал, проверь буфер" style="whiteSpace=wrap;html=1;shape=mxgraph.basic.oval_callout" vertex="1" parent="1">
          <mxGeometry x="810" y="180" width="160" height="60" as="geometry" />
        </mxCell>
        <mxCell id="EHzQNXyAd45b1-Ulsyj4-12" value="" style="shape=partialRectangle;whiteSpace=wrap;html=1;top=0;bottom=0;fillColor=none;" vertex="1" parent="1">
          <mxGeometry x="190" y="120" width="440" height="300" as="geometry" />
        </mxCell>
        <mxCell id="EHzQNXyAd45b1-Ulsyj4-13" value="" style="shape=partialRectangle;whiteSpace=wrap;html=1;top=0;bottom=0;fillColor=none;" vertex="1" parent="1">
          <mxGeometry x="630" y="120" width="440" height="300" as="geometry" />
        </mxCell>
      </root>
    </mxGraphModel>
  </diagram>
</mxfile>
